<svg width="220" height="220" viewBox="0 0 220 220" fill="none" xmlns="http://www.w3.org/2000/svg">
<g clip-path="url(#clip0_13_6474)">
<path d="M0 36C0 16.1178 16.1177 0 36 0H184C203.882 0 220 16.1177 220 36V184C220 203.882 203.882 220 184 220H36C16.1178 220 0 203.882 0 184V36Z" fill="#DEF0FF"/>
<path d="M29.1484 47H25.5234L31.0469 31H35.4063L40.9219 47H37.2969L33.2891 34.6562H33.1641L29.1484 47ZM28.9219 40.7109H37.4844V43.3516H28.9219V40.7109ZM50.4805 41.8906V35H53.8086V47H50.6133V44.8203H50.4883C50.2174 45.5234 49.7669 46.0885 49.1367 46.5156C48.5117 46.9427 47.7487 47.1563 46.8477 47.1563C46.0456 47.1563 45.3398 46.974 44.7305 46.6094C44.1211 46.2448 43.6445 45.7266 43.3008 45.0547C42.9622 44.3828 42.7904 43.5781 42.7852 42.6406V35H46.1133V42.0469C46.1185 42.7552 46.3086 43.3151 46.6836 43.7266C47.0586 44.138 47.5612 44.3437 48.1914 44.3437C48.5924 44.3437 48.9674 44.2526 49.3164 44.0703C49.6654 43.8828 49.9466 43.6068 50.1602 43.2422C50.3789 42.8776 50.4857 42.4271 50.4805 41.8906ZM62.8535 35V37.5H55.627V35H62.8535ZM57.2676 32.125H60.5957V43.3125C60.5957 43.6198 60.6426 43.8594 60.7363 44.0312C60.8301 44.1979 60.9603 44.3151 61.127 44.3828C61.2988 44.4505 61.4967 44.4844 61.7207 44.4844C61.877 44.4844 62.0332 44.4714 62.1895 44.4453C62.3457 44.4141 62.4655 44.3906 62.5488 44.375L63.0723 46.8516C62.9056 46.9036 62.6712 46.9635 62.3691 47.0313C62.0671 47.1042 61.6999 47.1484 61.2676 47.1641C60.4655 47.1953 59.7624 47.0885 59.1582 46.8437C58.5592 46.599 58.0931 46.2187 57.7598 45.7031C57.4264 45.1875 57.2624 44.5365 57.2676 43.75V32.125ZM70.3145 47.2344C69.1009 47.2344 68.0514 46.9766 67.166 46.4609C66.2858 45.9401 65.6061 45.2161 65.127 44.2891C64.6478 43.3568 64.4082 42.276 64.4082 41.0469C64.4082 39.8073 64.6478 38.724 65.127 37.7969C65.6061 36.8646 66.2858 36.1406 67.166 35.625C68.0514 35.1042 69.1009 34.8438 70.3145 34.8438C71.528 34.8438 72.5749 35.1042 73.4551 35.625C74.3405 36.1406 75.0228 36.8646 75.502 37.7969C75.9811 38.724 76.2207 39.8073 76.2207 41.0469C76.2207 42.276 75.9811 43.3568 75.502 44.2891C75.0228 45.2161 74.3405 45.9401 73.4551 46.4609C72.5749 46.9766 71.528 47.2344 70.3145 47.2344ZM70.3301 44.6562C70.8822 44.6562 71.3431 44.5 71.7129 44.1875C72.0827 43.8698 72.3613 43.4375 72.5488 42.8906C72.7415 42.3437 72.8379 41.7214 72.8379 41.0234C72.8379 40.3255 72.7415 39.7031 72.5488 39.1562C72.3613 38.6094 72.0827 38.1771 71.7129 37.8594C71.3431 37.5417 70.8822 37.3828 70.3301 37.3828C69.7728 37.3828 69.304 37.5417 68.9238 37.8594C68.5488 38.1771 68.265 38.6094 68.0723 39.1562C67.8848 39.7031 67.791 40.3255 67.791 41.0234C67.791 41.7214 67.8848 42.3437 68.0723 42.8906C68.265 43.4375 68.5488 43.8698 68.9238 44.1875C69.304 44.5 69.7728 44.6562 70.3301 44.6562ZM78.3848 47V35H81.5566V37.1172H81.6973C81.9473 36.4141 82.3639 35.8594 82.9473 35.4531C83.5306 35.0469 84.2285 34.8438 85.041 34.8438C85.8639 34.8438 86.5645 35.0495 87.1426 35.4609C87.7207 35.8672 88.1061 36.4193 88.2988 37.1172H88.4238C88.6686 36.4297 89.1113 35.8802 89.752 35.4687C90.3978 35.0521 91.1608 34.8438 92.041 34.8438C93.1608 34.8438 94.0697 35.2005 94.7676 35.9141C95.4707 36.6224 95.8223 37.6276 95.8223 38.9297V47H92.502V39.5859C92.502 38.9193 92.3249 38.4193 91.9707 38.0859C91.6165 37.7526 91.1738 37.5859 90.6426 37.5859C90.0384 37.5859 89.5671 37.7786 89.2285 38.1641C88.89 38.5443 88.7207 39.0469 88.7207 39.6719V47H85.4941V39.5156C85.4941 38.9271 85.3249 38.4583 84.9863 38.1094C84.653 37.7604 84.2129 37.5859 83.666 37.5859C83.2962 37.5859 82.9629 37.6797 82.666 37.8672C82.3743 38.0495 82.1426 38.3073 81.9707 38.6406C81.7988 38.9687 81.7129 39.3542 81.7129 39.7969V47H78.3848ZM103.873 47.2344C102.66 47.2344 101.61 46.9766 100.725 46.4609C99.8444 45.9401 99.1647 45.2161 98.6855 44.2891C98.2064 43.3568 97.9668 42.276 97.9668 41.0469C97.9668 39.8073 98.2064 38.724 98.6855 37.7969C99.1647 36.8646 99.8444 36.1406 100.725 35.625C101.61 35.1042 102.66 34.8438 103.873 34.8438C105.087 34.8438 106.133 35.1042 107.014 35.625C107.899 36.1406 108.581 36.8646 109.061 37.7969C109.54 38.724 109.779 39.8073 109.779 41.0469C109.779 42.276 109.54 43.3568 109.061 44.2891C108.581 45.2161 107.899 45.9401 107.014 46.4609C106.133 46.9766 105.087 47.2344 103.873 47.2344ZM103.889 44.6562C104.441 44.6562 104.902 44.5 105.271 44.1875C105.641 43.8698 105.92 43.4375 106.107 42.8906C106.3 42.3437 106.396 41.7214 106.396 41.0234C106.396 40.3255 106.3 39.7031 106.107 39.1562C105.92 38.6094 105.641 38.1771 105.271 37.8594C104.902 37.5417 104.441 37.3828 103.889 37.3828C103.331 37.3828 102.863 37.5417 102.482 37.8594C102.107 38.1771 101.824 38.6094 101.631 39.1562C101.443 39.7031 101.35 40.3255 101.35 41.0234C101.35 41.7214 101.443 42.3437 101.631 42.8906C101.824 43.4375 102.107 43.8698 102.482 44.1875C102.863 44.5 103.331 44.6562 103.889 44.6562ZM112.006 47V31H115.334V37.0156H115.436C115.581 36.6927 115.792 36.3646 116.068 36.0312C116.35 35.6927 116.714 35.4115 117.162 35.1875C117.615 34.9583 118.178 34.8438 118.85 34.8438C119.725 34.8438 120.532 35.0729 121.271 35.5313C122.011 35.9844 122.602 36.6693 123.045 37.5859C123.488 38.4974 123.709 39.6406 123.709 41.0156C123.709 42.3542 123.493 43.4844 123.061 44.4062C122.633 45.3229 122.05 46.0182 121.311 46.4922C120.576 46.9609 119.753 47.1953 118.842 47.1953C118.196 47.1953 117.646 47.0885 117.193 46.875C116.745 46.6615 116.378 46.3932 116.092 46.0703C115.805 45.7422 115.587 45.4115 115.436 45.0781H115.287V47H112.006ZM115.264 41C115.264 41.7135 115.363 42.3359 115.561 42.8672C115.758 43.3984 116.045 43.8125 116.42 44.1094C116.795 44.401 117.251 44.5469 117.787 44.5469C118.329 44.5469 118.787 44.3984 119.162 44.1016C119.537 43.7995 119.821 43.3828 120.014 42.8516C120.212 42.3151 120.311 41.6979 120.311 41C120.311 40.3073 120.214 39.6979 120.021 39.1719C119.829 38.6458 119.545 38.2344 119.17 37.9375C118.795 37.6406 118.334 37.4922 117.787 37.4922C117.245 37.4922 116.787 37.6354 116.412 37.9219C116.042 38.2083 115.758 38.6146 115.561 39.1406C115.363 39.6667 115.264 40.2865 115.264 41ZM125.93 47V35H129.258V47H125.93ZM127.602 33.4531C127.107 33.4531 126.682 33.2891 126.328 32.9609C125.979 32.6276 125.805 32.2292 125.805 31.7656C125.805 31.3073 125.979 30.9141 126.328 30.5859C126.682 30.2526 127.107 30.0859 127.602 30.0859C128.096 30.0859 128.518 30.2526 128.867 30.5859C129.221 30.9141 129.398 31.3073 129.398 31.7656C129.398 32.2292 129.221 32.6276 128.867 32.9609C128.518 33.2891 128.096 33.4531 127.602 33.4531ZM135.252 31V47H131.924V31H135.252Z" fill="black"/>
<path d="M153.154 185.64C152.629 183.621 151.75 181.422 150.742 179.606L149.536 179.919L151.942 185.64H153.154V185.64Z" fill="#263238"/>
<path d="M148.542 176.812C148.542 176.812 147.941 176.849 147.886 177.392C147.831 177.935 147.886 178.254 147.886 178.254C147.886 178.254 147.412 178.815 147.339 179.133C147.266 179.452 147.302 179.58 147.448 179.75C147.594 179.92 148.451 180.351 148.451 180.351L148.324 179.171C148.324 179.171 148.506 178.403 148.889 178.328C149.272 178.254 149.29 178.104 149.29 178.104L150.111 178.796L149.801 179.171C149.801 179.171 149.783 179.677 150.02 179.957C150.257 180.238 151.096 179.752 151.46 179.527C151.825 179.302 152.098 178.965 152.098 178.965L152.918 178.902L152.992 176.812C152.992 176.812 149.272 176.662 148.542 176.812Z" fill="#FFBF9D"/>
<path d="M149.29 178.104C149.29 178.104 147.671 178.477 148.559 180.675C149.34 182.606 150.556 185.64 150.556 185.64H152.465C152.465 185.64 151.291 183.786 150.655 181.872C150.02 179.958 149.905 179.045 149.905 179.045L150.111 178.797L149.29 178.104Z" fill="#263238"/>
<path d="M185.074 183.144C185.074 183.144 184.404 176.902 183.881 175.802C183.359 174.703 182.497 174.006 181.217 174.274C179.937 174.542 179.336 176.714 179.284 178.645C179.232 180.576 179.545 181.487 179.545 181.487L180.486 181.836L180.042 182.781L185.074 183.144Z" fill="#263238"/>
<path d="M152.435 178.973L152.903 176.808L160.509 177.609L161.108 180.17L160.804 182.183L159.784 182.638C159.784 182.638 155.874 180.42 154.508 179.799C153.143 179.178 152.789 178.855 152.435 178.973Z" fill="#FFBF9D"/>
<path d="M174.557 178.805C174.557 178.805 173.074 178.198 172.067 178.917C172.067 178.917 171.956 178.686 171.669 178.68C171.342 178.673 171.322 178.856 171.322 178.856C171.322 178.856 165.923 178.922 165.802 178.838C165.681 178.754 164.69 178.085 163.844 177.89C162.998 177.695 160.509 177.609 160.509 177.609C160.509 177.609 160.992 181.64 159.784 182.637C159.784 182.637 161.21 183.356 162.539 183.468C163.868 183.579 165.899 183.468 165.899 183.468C165.899 183.468 166.43 183.831 166.624 183.719C166.817 183.607 166.89 183.496 166.89 183.496L170.032 183.468L173.101 182.799L174.742 179.596L174.557 178.805Z" fill="#455A64"/>
<path d="M240.169 196.412C240.398 196.716 236.761 217.442 236.761 217.442L80.9681 221.46V198.656L110.009 191.313L228.323 191.436L240.169 196.412Z" fill="#FF725E"/>
<g opacity="0.5">
<path d="M240.169 196.412C240.398 196.716 236.761 217.442 236.761 217.442L80.9681 221.46V198.656L110.009 191.313L228.323 191.436L240.169 196.412Z" fill="black"/>
</g>
<path d="M166.202 182.58C167.554 181.917 169.082 182.434 169.082 182.434L168.906 183.434L164.287 183.662C164.287 183.662 164.85 183.244 166.202 182.58Z" fill="#FFBF9D"/>
<path d="M227.1 180.277C227.1 180.277 223.956 179.252 217.783 178.405C211.61 177.557 211.239 177.874 211.239 177.874C211.239 177.874 209.738 172.606 208.216 172.695C206.695 172.784 206.434 174.209 206.26 176.331C206.086 178.453 205.683 180.676 205.683 180.676L202.267 181.943C202.267 181.943 211.349 183.014 211.48 183.053C211.61 183.091 226.739 181.797 226.739 181.797L227.313 180.242" fill="#263238"/>
<path d="M72.3663 207.125L72.5264 201.985C72.6333 198.55 74.45 195.404 77.3487 193.684C80.1049 192.048 83.9897 190.054 88.7516 188.424C99.9239 184.601 114.004 183.845 118.39 183.444C122.777 183.044 127.392 183.444 127.392 183.444C132.559 177.64 154.98 165.434 154.98 165.434L160.439 167.933L133.631 184.946L167.458 182.944C167.458 182.944 206.257 181.743 212.3 181.743C218.344 181.743 227.313 180.242 227.313 180.242L247.199 184.245L250.221 183.845L252.659 184.846L251.781 186.447L254.511 198.656C254.511 198.656 256.17 199.828 256.409 200.393C256.649 200.959 256.633 202.747 256.633 202.747C256.76 203.139 255.996 203.597 255.996 203.597L255.883 207.639L256.647 210.188C256.583 211.756 253.274 215.938 252.001 216.199C251.056 216.393 240.436 218.566 235.022 219.674C233.802 213.728 233.874 210.687 231.366 205.183C228.586 199.082 222.201 194.939 215.64 194.844C209.079 194.75 202.639 198.641 199.418 204.511C196.496 209.837 196.283 216.583 198.669 222.175L121.636 223.61L121.71 221.164C122.311 215.505 121.875 210.425 119.35 204.886C116.57 198.784 110.186 194.642 103.625 194.547C97.0633 194.452 90.6228 198.344 87.4024 204.213C84.3733 209.734 84.2561 216.779 86.9257 222.485C83.3134 222.543 75.7656 220.339 75.4245 220.288C75.4245 220.288 71.6661 214.64 71.6661 213.66C71.6661 212.68 72.3663 207.125 72.3663 207.125Z" fill="#FF725E"/>
<path d="M72.5889 199.975C72.5889 199.975 71.744 200.188 71.6664 201.948C71.5887 203.709 71.0015 212.68 71.6664 213.194C72.331 213.708 72.5889 199.975 72.5889 199.975Z" fill="#263238"/>
<path d="M128.918 218.83C128.918 218.83 128.983 218.947 129.129 219.186C129.279 219.428 129.503 219.789 129.81 220.285L129.816 220.295L129.828 220.294C132.286 220.206 137.794 220.008 145.241 219.741C148.97 219.62 153.184 219.482 157.742 219.334C162.3 219.2 167.202 219.06 172.307 218.999C173.07 218.986 173.827 218.985 174.58 218.985C175.331 218.975 176.084 219.009 176.83 218.923C178.316 218.772 179.767 218.244 180.905 217.306C182.045 216.369 182.85 215.111 183.419 213.814C184.004 212.517 184.364 211.165 184.803 209.893C184.911 209.576 185.055 209.274 185.15 208.943C185.244 208.618 185.313 208.29 185.371 207.963C185.488 207.311 185.575 206.663 185.646 206.024C185.792 204.745 185.888 203.501 185.972 202.297C186.136 199.888 186.234 197.642 186.309 195.592C186.383 193.541 186.431 191.685 186.459 190.055C186.462 189.851 186.465 189.651 186.468 189.454C186.472 189.258 186.478 189.065 186.436 188.867C186.336 188.496 186.187 188.163 186.046 187.845C185.758 187.21 185.463 186.648 185.197 186.144C184.66 185.136 184.221 184.368 183.923 183.846C183.645 183.361 183.518 183.139 183.468 183.052C183.468 183.052 183.497 183.126 183.57 183.262C183.646 183.401 183.754 183.601 183.896 183.862C184.185 184.388 184.616 185.162 185.144 186.173C185.405 186.679 185.696 187.243 185.979 187.876C186.116 188.194 186.263 188.527 186.358 188.887C186.367 188.978 186.392 189.064 186.388 189.162C186.387 189.258 186.386 189.355 186.384 189.453C186.38 189.65 186.376 189.85 186.372 190.054C186.336 191.683 186.28 193.538 186.2 195.588C186.118 197.637 186.013 199.882 185.844 202.288C185.757 203.49 185.659 204.733 185.511 206.008C185.439 206.645 185.351 207.29 185.234 207.938C185.176 208.261 185.108 208.585 185.015 208.901C184.926 209.213 184.78 209.52 184.669 209.843C184.225 211.126 183.865 212.467 183.285 213.752C182.719 215.034 181.926 216.269 180.811 217.185C179.696 218.101 178.278 218.618 176.814 218.766C176.082 218.851 175.334 218.817 174.58 218.827C173.827 218.827 173.068 218.828 172.306 218.84C167.198 218.902 162.296 219.045 157.737 219.184C153.18 219.342 148.966 219.488 145.236 219.617C137.78 219.898 132.266 220.137 129.826 220.254L129.843 220.264C129.529 219.773 129.3 219.415 129.147 219.175C128.995 218.939 128.918 218.83 128.918 218.83Z" fill="#263238"/>
<g opacity="0.3">
<path d="M197.964 208.294L121.764 213.484C122.049 215.714 121.963 218.349 121.71 221.164L121.636 223.611L198.67 222.176C196.927 217.167 196.388 212.463 197.964 208.294Z" fill="black"/>
</g>
<path d="M198.772 222.154C198.772 222.154 185.976 220.7 169.74 219.593C153.504 218.485 121.729 220.986 121.729 220.986L121.636 223.611L198.772 222.154Z" fill="#FF725E"/>
<path d="M198.473 213.732C198.341 204.306 205.677 196.552 214.859 196.413C224.041 196.273 231.591 203.802 231.724 213.228C231.856 222.654 224.52 230.408 215.338 230.548C206.157 230.687 198.606 223.159 198.473 213.732Z" fill="#263238"/>
<path d="M231.716 213.193C231.716 213.208 231.718 213.222 231.719 213.237C231.851 222.664 224.515 230.416 215.333 230.551C206.152 230.687 198.601 223.156 198.468 213.729C198.468 213.715 198.47 213.7 198.47 213.685L231.716 213.193Z" fill="#263238"/>
<path d="M226.765 213.311C226.858 219.928 221.708 225.371 215.262 225.466C208.815 225.562 203.514 220.274 203.421 213.656C203.328 207.038 208.479 201.596 214.925 201.501C221.371 201.405 226.672 206.693 226.765 213.311Z" fill="#FAFAFA"/>
<path d="M214.925 201.501C221.371 201.405 226.672 206.693 226.765 213.311L203.421 213.657C203.328 207.039 208.479 201.596 214.925 201.501Z" fill="#E0E0E0"/>
<path d="M222.203 213.379C222.26 217.41 219.123 220.725 215.196 220.783C211.269 220.841 208.04 217.62 207.983 213.589C207.927 209.558 211.064 206.242 214.991 206.184C218.918 206.126 222.147 209.347 222.203 213.379Z" fill="#263238"/>
<path d="M213.942 178.012C213.928 178.014 214.006 178.117 213.936 178.309C213.872 178.499 213.69 178.737 213.437 179.021C213.312 179.166 213.165 179.319 213.028 179.513C212.884 179.709 212.805 179.966 212.761 180.241C212.68 180.794 212.763 181.448 213.048 182.087C213.338 182.72 213.823 183.345 214.507 183.788C214.848 184.009 215.235 184.182 215.652 184.285C216.076 184.369 216.508 184.41 216.953 184.455C218.73 184.61 220.687 184.709 222.741 184.795C226.852 184.953 230.575 185.043 233.272 184.933C233.441 184.928 233.606 184.914 233.767 184.897C233.927 184.882 234.084 184.871 234.235 184.831C234.31 184.815 234.384 184.799 234.457 184.783C234.528 184.758 234.598 184.733 234.667 184.709C234.807 184.669 234.929 184.593 235.051 184.533C235.533 184.262 235.823 183.85 235.988 183.503C236.155 183.149 236.203 182.845 236.229 182.643C236.24 182.542 236.243 182.463 236.244 182.411C236.243 182.359 236.241 182.332 236.238 182.332C236.235 182.332 236.233 182.359 236.228 182.411C236.223 182.462 236.214 182.539 236.198 182.639C236.163 182.837 236.105 183.135 235.934 183.476C235.764 183.811 235.478 184.202 235.01 184.455C234.89 184.512 234.773 184.583 234.636 184.62C234.569 184.642 234.501 184.665 234.432 184.689C234.361 184.703 234.289 184.717 234.215 184.732C234.07 184.768 233.915 184.778 233.757 184.791C233.598 184.806 233.436 184.818 233.267 184.821C230.578 184.901 226.854 184.795 222.747 184.637C220.695 184.55 218.738 184.455 216.965 184.309C216.524 184.267 216.09 184.227 215.684 184.149C215.28 184.052 214.906 183.887 214.575 183.676C213.912 183.254 213.435 182.651 213.147 182.04C212.865 181.424 212.776 180.787 212.846 180.254C212.885 179.989 212.957 179.742 213.089 179.557C213.217 179.368 213.361 179.21 213.482 179.062C213.729 178.771 213.908 178.522 213.966 178.32C214.029 178.111 213.936 178.006 213.942 178.012Z" fill="#263238"/>
<path d="M88.7333 195.165C88.7333 195.165 86.4538 199.288 82.6008 201.071C78.7477 202.854 76.9024 203.021 76.0341 202.687C75.1658 202.352 75.1658 198.786 75.6541 197.839C76.1424 196.892 80.7013 194.664 83.4147 194.218C86.1283 193.771 89.0047 193.66 88.7333 195.165Z" fill="white"/>
<path d="M84.3343 194.082C84.3355 194.085 84.3724 194.071 84.4435 194.042C84.5212 194.01 84.6248 193.966 84.7569 193.911C85.0277 193.784 85.4425 193.637 85.9746 193.443C87.0462 193.075 88.6201 192.614 90.5856 192.131C92.5505 191.644 94.9064 191.135 97.532 190.621C98.8452 190.367 100.226 190.111 101.661 189.871C103.095 189.634 104.591 189.445 106.119 189.23C109.178 188.807 112.092 188.396 114.737 187.992C117.382 187.582 119.765 187.216 121.742 186.751C122.733 186.506 123.576 186.107 124.281 185.712C124.988 185.315 125.566 184.918 126.026 184.58C126.486 184.24 126.828 183.956 127.055 183.759C127.169 183.66 127.254 183.582 127.31 183.529C127.367 183.476 127.394 183.447 127.392 183.445C127.39 183.443 127.359 183.468 127.3 183.517C127.235 183.571 127.147 183.643 127.036 183.734C126.802 183.923 126.455 184.199 125.991 184.529C125.528 184.859 124.947 185.246 124.241 185.634C123.535 186.02 122.697 186.408 121.716 186.642C119.747 187.09 117.361 187.446 114.717 187.848C112.071 188.244 109.158 188.65 106.099 189.073C104.57 189.289 103.075 189.478 101.637 189.718C100.2 189.961 98.8193 190.22 97.5058 190.478C94.8796 191 92.524 191.521 90.5603 192.023C88.5957 192.521 87.0233 192.999 85.9555 193.386C85.425 193.589 85.0128 193.746 84.745 193.883C84.6152 193.944 84.5135 193.993 84.4373 194.029C84.368 194.062 84.3331 194.08 84.3343 194.082Z" fill="#263238"/>
<path d="M132.021 183.445C130.81 183.639 128.752 183.368 127.628 183.189C132.366 178.175 148.804 168.86 153.633 166.176C153.633 166.176 156.454 167.447 156.395 167.876C156.335 168.304 133.749 183.169 132.021 183.445Z" fill="white"/>
<path d="M160.439 167.932V169.598L140.262 183.053V184.554L133.631 184.946L160.439 167.932Z" fill="#263238"/>
<path d="M136.104 182.327C136.528 181.79 137.103 181.406 137.668 181.031C138.843 180.251 140.069 179.452 141.456 179.266L141.853 179.306C142.771 179.253 143.657 179.801 144.189 180.57C144.722 181.339 144.937 182.3 144.973 183.243C144.993 183.755 144.962 184.279 144.789 184.76C144.616 185.242 144.289 185.68 143.836 185.898C143.442 186.087 142.991 186.096 142.555 186.101C141.173 186.118 139.787 186.134 138.413 185.978C137.836 185.912 137.252 185.812 136.732 185.547C136.211 185.283 135.757 184.829 135.603 184.255C135.426 183.588 135.681 182.864 136.104 182.327Z" fill="#FF725E"/>
<path d="M136.104 182.327C136.102 182.325 136.086 182.342 136.057 182.377C136.027 182.41 135.986 182.465 135.935 182.537C135.836 182.684 135.697 182.912 135.598 183.241C135.503 183.564 135.447 184.013 135.633 184.476C135.814 184.935 136.22 185.361 136.764 185.626C137.308 185.896 137.965 186 138.654 186.07C139.347 186.142 140.09 186.174 140.871 186.183C141.261 186.183 141.661 186.183 142.07 186.183C142.477 186.173 142.894 186.195 143.328 186.13C143.543 186.096 143.761 186.033 143.961 185.921C144.16 185.809 144.335 185.654 144.48 185.475C144.773 185.115 144.942 184.657 145.009 184.192C145.094 183.581 145.056 182.979 144.967 182.399C144.871 181.82 144.692 181.261 144.408 180.776C143.853 179.801 142.827 179.176 141.849 179.236L141.859 179.237C141.722 179.224 141.592 179.211 141.462 179.199L141.454 179.198L141.447 179.199C140.504 179.334 139.708 179.721 139.047 180.099C138.384 180.484 137.838 180.866 137.385 181.173C136.931 181.483 136.597 181.762 136.393 181.976C136.289 182.082 136.217 182.17 136.17 182.23C136.124 182.292 136.102 182.324 136.104 182.327C136.112 182.333 136.207 182.207 136.421 182.006C136.632 181.803 136.969 181.538 137.427 181.239C137.886 180.942 138.437 180.569 139.099 180.196C139.759 179.829 140.546 179.458 141.464 179.333L141.449 179.334C141.579 179.347 141.71 179.361 141.846 179.375L141.851 179.375L141.857 179.375C142.774 179.323 143.752 179.92 144.28 180.855C144.551 181.321 144.723 181.861 144.815 182.425C144.902 182.989 144.938 183.585 144.856 184.167C144.791 184.613 144.633 185.04 144.362 185.374C144.095 185.714 143.714 185.921 143.304 185.977C142.897 186.039 142.476 186.02 142.069 186.031C141.661 186.033 141.262 186.035 140.872 186.037C140.094 186.032 139.355 186.005 138.667 185.939C137.98 185.875 137.338 185.778 136.811 185.525C136.285 185.277 135.892 184.874 135.713 184.442C135.53 184.007 135.573 183.577 135.656 183.259C135.845 182.613 136.127 182.338 136.104 182.327Z" fill="#263238"/>
<path d="M71.6125 213.857C71.6125 213.901 74.9334 213.936 79.029 213.936C83.1261 213.936 86.4462 213.9 86.4462 213.857C86.4462 213.813 83.1261 213.777 79.029 213.777C74.9334 213.777 71.6125 213.813 71.6125 213.857Z" fill="#263238"/>
<path d="M128.918 218.83C128.92 218.83 128.917 218.799 128.908 218.738C128.897 218.669 128.883 218.581 128.865 218.471C128.832 218.235 128.752 217.894 128.699 217.445C128.576 216.551 128.429 215.252 128.327 213.64C128.113 210.417 128.016 205.95 128.128 201.02C128.184 198.555 128.286 196.208 128.449 194.079C128.526 193.014 128.629 192.004 128.78 191.071C128.962 190.146 129.175 189.286 129.504 188.555C130.108 187.064 131.045 186.104 131.778 185.627C132.149 185.388 132.464 185.25 132.681 185.171C132.791 185.135 132.874 185.106 132.932 185.093C132.989 185.076 133.019 185.07 133.019 185.067C133.018 185.065 132.988 185.065 132.929 185.077C132.87 185.085 132.784 185.109 132.671 185.14C132.449 185.211 132.127 185.34 131.746 185.574C130.994 186.041 130.028 187.006 129.403 188.51C129.064 189.247 128.843 190.114 128.653 191.047C128.495 191.989 128.388 193.001 128.307 194.067C128.136 196.199 128.029 198.55 127.972 201.017C127.861 205.951 127.975 210.423 128.218 213.649C128.334 215.262 128.498 216.562 128.639 217.456C128.702 217.904 128.791 218.245 128.835 218.478C128.859 218.587 128.878 218.674 128.893 218.743C128.907 218.801 128.915 218.831 128.918 218.83Z" fill="#263238"/>
<path d="M86.2759 213.735C86.1454 204.309 93.4829 196.556 102.665 196.419C111.847 196.281 119.396 203.811 119.526 213.237C119.657 222.663 112.319 230.416 103.138 230.554C93.9557 230.691 86.4065 223.161 86.2759 213.735Z" fill="#263238"/>
<path d="M119.521 213.193C119.521 213.208 119.524 213.222 119.524 213.237C119.657 222.664 112.321 230.416 103.139 230.551C93.957 230.687 86.4063 223.156 86.2739 213.729C86.2736 213.715 86.2753 213.7 86.2753 213.685L119.521 213.193Z" fill="#263238"/>
<path d="M114.571 213.31C114.663 219.928 109.513 225.37 103.067 225.466C96.6206 225.561 91.3195 220.274 91.2267 213.656C91.1338 207.038 96.284 201.596 102.73 201.501C109.177 201.405 114.478 206.693 114.571 213.31Z" fill="#FAFAFA"/>
<path d="M102.73 201.501C109.177 201.405 114.478 206.693 114.57 213.311L91.2266 213.657C91.1338 207.039 96.284 201.596 102.73 201.501Z" fill="#E0E0E0"/>
<path d="M110.009 213.378C110.065 217.41 106.928 220.725 103.001 220.783C99.0744 220.841 95.8451 217.62 95.7885 213.589C95.732 209.557 98.8694 206.242 102.796 206.184C106.723 206.126 109.952 209.347 110.009 213.378Z" fill="#263238"/>
<path d="M171.592 192.903C171.593 192.892 171.52 192.894 171.389 192.858C171.261 192.818 171.068 192.734 170.89 192.519C170.714 192.311 170.567 191.949 170.61 191.527C170.645 191.114 170.915 190.655 171.347 190.53C171.553 190.466 171.803 190.506 172.055 190.498C172.308 190.5 172.571 190.502 172.843 190.504C173.388 190.507 173.97 190.51 174.581 190.514C175.807 190.516 177.151 190.519 178.563 190.522C178.889 190.521 179.201 190.73 179.368 191.053C179.54 191.371 179.559 191.787 179.435 192.121C179.313 192.458 179.052 192.705 178.763 192.778C178.623 192.818 178.465 192.801 178.307 192.806C178.15 192.806 177.995 192.807 177.842 192.807C176.623 192.816 175.523 192.823 174.59 192.83C173.681 192.843 172.938 192.855 172.397 192.863C172.154 192.871 171.956 192.877 171.801 192.882C171.664 192.889 171.592 192.896 171.592 192.903C171.592 192.91 171.664 192.917 171.8 192.924C171.955 192.929 172.153 192.935 172.396 192.943C172.936 192.952 173.68 192.963 174.589 192.976C175.521 192.983 176.622 192.99 177.841 192.999C177.994 192.999 178.149 193 178.306 193.001C178.459 192.997 178.622 193.017 178.797 192.972C179.136 192.888 179.444 192.6 179.59 192.203C179.737 191.809 179.716 191.319 179.513 190.942C179.317 190.561 178.947 190.311 178.562 190.313C177.15 190.316 175.806 190.319 174.58 190.321C173.969 190.325 173.387 190.328 172.842 190.331C172.57 190.333 172.308 190.335 172.054 190.337C171.803 190.351 171.56 190.31 171.315 190.387C170.831 190.539 170.542 191.059 170.512 191.514C170.475 191.978 170.647 192.364 170.842 192.576C171.039 192.797 171.248 192.871 171.382 192.898C171.52 192.922 171.592 192.903 171.592 192.903Z" fill="#263238"/>
<path d="M180.758 175.697C181.273 174.842 181.786 173.979 182.15 173.046C182.514 172.113 182.726 171.098 182.612 170.099C182.595 169.948 182.389 168.91 182.242 168.888C182.137 168.873 182.194 169.807 182.12 169.886C181.417 170.634 181.033 171.65 180.873 172.676C180.712 173.703 180.7 174.659 180.758 175.697Z" fill="#263238"/>
<path d="M179.19 166.537L178.966 166.494C176.718 166.059 174.521 167.469 173.918 169.734C173.357 171.842 172.763 174.179 172.566 175.33C172.159 177.713 174.407 178.53 174.407 178.53C174.412 178.531 173.72 180.99 173.72 180.99L176.125 181.629L179.074 181.487L181.738 171.995C182.399 169.566 181.573 167.148 179.19 166.537Z" fill="#FFBF9D"/>
<path d="M174.407 178.53C174.407 178.53 175.851 178.9 177.59 178.198C177.59 178.198 176.476 179.923 174.205 179.262L174.407 178.53Z" fill="#FF9A6C"/>
<path d="M174.145 172.079C174.106 172.257 174.221 172.438 174.401 172.484C174.581 172.529 174.759 172.422 174.798 172.243C174.837 172.065 174.722 171.884 174.542 171.839C174.362 171.794 174.184 171.901 174.145 172.079Z" fill="#263238"/>
<path d="M174.218 170.879C174.251 170.931 174.537 170.789 174.892 170.859C175.248 170.924 175.475 171.162 175.522 171.125C175.544 171.109 175.517 171.021 175.419 170.914C175.323 170.808 175.147 170.689 174.925 170.647C174.703 170.605 174.502 170.653 174.379 170.718C174.254 170.783 174.202 170.856 174.218 170.879Z" fill="#263238"/>
<path d="M177.245 172.744C177.206 172.923 177.321 173.103 177.501 173.149C177.681 173.194 177.859 173.087 177.898 172.909C177.937 172.73 177.822 172.55 177.642 172.504C177.462 172.459 177.284 172.566 177.245 172.744Z" fill="#263238"/>
<path d="M177.691 171.639C177.724 171.691 178.009 171.549 178.365 171.619C178.721 171.683 178.948 171.922 178.994 171.884C179.017 171.868 178.99 171.781 178.892 171.673C178.795 171.567 178.62 171.448 178.398 171.406C178.176 171.364 177.974 171.412 177.852 171.477C177.726 171.542 177.675 171.615 177.691 171.639Z" fill="#263238"/>
<path d="M175.899 174.199C175.904 174.179 175.69 174.096 175.341 173.98C175.252 173.953 175.169 173.918 175.166 173.851C175.157 173.78 175.213 173.687 175.277 173.587C175.404 173.377 175.537 173.158 175.676 172.928C176.235 171.989 176.658 171.21 176.62 171.187C176.583 171.164 176.1 171.907 175.542 172.846C175.406 173.078 175.277 173.299 175.153 173.511C175.1 173.61 175.018 173.719 175.039 173.868C175.051 173.942 175.108 174.006 175.164 174.033C175.219 174.063 175.27 174.074 175.314 174.085C175.67 174.174 175.894 174.22 175.899 174.199Z" fill="#263238"/>
<path d="M177.786 170.474C177.817 170.576 178.18 170.545 178.602 170.617C179.025 170.681 179.362 170.824 179.422 170.736C179.449 170.694 179.394 170.596 179.26 170.492C179.127 170.388 178.912 170.285 178.659 170.244C178.405 170.204 178.17 170.235 178.013 170.292C177.854 170.349 177.772 170.425 177.786 170.474Z" fill="#263238"/>
<path d="M174.399 169.802C174.457 169.9 174.762 169.875 175.11 169.944C175.46 170.002 175.741 170.134 175.826 170.061C175.864 170.026 175.834 169.933 175.721 169.828C175.61 169.723 175.411 169.615 175.171 169.572C174.931 169.528 174.709 169.56 174.572 169.619C174.432 169.678 174.375 169.755 174.399 169.802Z" fill="#263238"/>
<path d="M181.227 173.718C181.27 173.708 182.906 173.543 182.557 175.158C182.209 176.774 180.539 176.101 180.546 176.054C180.554 176.007 181.227 173.718 181.227 173.718Z" fill="#FFBF9D"/>
<path d="M181.321 175.531C181.329 175.528 181.344 175.557 181.385 175.59C181.426 175.621 181.501 175.654 181.589 175.641C181.769 175.616 181.967 175.377 182.038 175.087C182.074 174.941 182.074 174.794 182.048 174.667C182.026 174.538 181.969 174.439 181.889 174.404C181.81 174.365 181.739 174.403 181.71 174.444C181.68 174.485 181.683 174.519 181.674 174.52C181.668 174.523 181.646 174.485 181.673 174.421C181.686 174.391 181.713 174.357 181.756 174.334C181.801 174.311 181.86 174.308 181.917 174.328C182.036 174.364 182.121 174.503 182.149 174.643C182.184 174.785 182.187 174.951 182.147 175.115C182.067 175.438 181.839 175.706 181.597 175.722C181.479 175.727 181.395 175.671 181.355 175.622C181.315 175.571 181.314 175.533 181.321 175.531Z" fill="#FF9A6C"/>
<path d="M175.535 167.304C175.314 167.1 176.266 166.436 176.957 166.293C178 166.077 179.502 166.148 180.315 166.608C181.295 167.162 182.045 167.903 182.35 169.007C182.656 170.111 182.597 171.299 182.315 172.41C182.229 172.749 182.115 173.096 181.873 173.342C181.573 173.647 181.102 173.771 181.01 174.268C180.976 174.449 180.885 174.619 180.736 174.721C180.378 174.967 180.093 174.588 179.998 174.254C179.794 173.541 179.925 172.778 180.058 172.047C180.152 171.528 180.25 170.998 180.502 170.538C180.639 170.287 180.82 170.062 180.944 169.804C181.067 169.546 181.129 169.235 181.013 168.973C180.995 168.931 180.96 168.874 180.916 168.81C180.561 168.305 179.965 168.037 179.362 168.107C178.406 168.219 176.788 168.341 176.463 167.939C175.995 167.361 175.924 167.04 175.924 167.04L175.535 167.304Z" fill="#263238"/>
<path d="M176.955 174.686C176.902 174.67 176.817 175.039 176.448 175.227C176.08 175.416 175.705 175.281 175.691 175.332C175.68 175.354 175.76 175.425 175.921 175.469C176.078 175.513 176.322 175.517 176.548 175.402C176.773 175.287 176.903 175.091 176.95 174.943C176.999 174.791 176.98 174.69 176.955 174.686Z" fill="#263238"/>
<path d="M167.706 182.936C167.706 182.936 167.653 182.748 167.706 182.495C167.752 182.276 170.589 181.076 171.55 180.493C172.511 179.911 173.559 179.417 174.214 179.328C174.869 179.238 176.66 179.328 176.66 179.328C176.66 179.328 177.053 179.148 178.014 178.834C178.975 178.52 180.198 178.7 181.115 179.238C182.032 179.776 182.993 181.211 182.949 181.794C182.905 182.377 182.606 182.489 182.606 182.489L179.686 182.748C179.686 182.748 175.253 185.134 174.205 185.089C173.157 185.045 167.706 182.936 167.706 182.936Z" fill="#455A64"/>
<path d="M177.157 179.636C177.152 179.662 177.403 179.706 177.778 179.86C178.151 180.01 178.647 180.292 179.071 180.744C179.496 181.197 179.753 181.715 179.886 182.103C180.022 182.493 180.056 182.752 180.081 182.748C180.098 182.747 180.103 182.481 179.99 182.069C179.88 181.66 179.628 181.108 179.183 180.634C178.737 180.16 178.209 179.881 177.815 179.754C177.418 179.623 177.158 179.619 177.157 179.636Z" fill="#263238"/>
<path d="M181.59 181.895C181.605 181.885 181.501 181.669 181.27 181.362C181.04 181.055 180.671 180.667 180.192 180.331C179.713 179.997 179.225 179.786 178.863 179.679C178.5 179.57 178.266 179.55 178.262 179.568C178.247 179.618 179.172 179.801 180.105 180.462C181.046 181.112 181.551 181.928 181.59 181.895Z" fill="#263238"/>
<path d="M176.075 167.11C175.995 166.922 176.034 166.696 176.14 166.522C176.247 166.348 176.413 166.221 176.591 166.126C177.473 165.652 178.308 165.503 179.511 165.568C179.623 165.599 179.526 165.837 179.309 165.909C180.022 165.808 180.768 165.969 181.381 166.358C181.67 166.541 181.961 166.782 182.281 166.854C182.418 166.885 182.491 167.041 182.436 167.173L182.291 167.524C182.244 167.639 182.294 167.769 182.402 167.827C182.548 167.906 182.679 168.017 182.783 168.149C182.874 168.265 182.846 168.439 182.72 168.512C182.502 168.637 182.289 168.805 182.08 168.717C181.801 168.599 181.586 168.193 181.32 168.046C180.629 167.661 179.793 167.719 179.013 167.811C178.232 167.904 177.414 168.017 176.682 167.723" fill="#263238"/>
<path d="M182.773 168.669C183.019 168.866 183.183 169.169 183.215 169.488C183.22 169.534 183.217 169.592 183.177 169.614C183.155 169.626 183.128 169.624 183.105 169.634C183.065 169.651 183.047 169.702 183.053 169.747C183.058 169.792 183.081 169.832 183.103 169.871C183.193 170.041 183.249 170.25 183.169 170.425C183.081 170.618 182.849 170.705 182.642 170.683C182.435 170.662 182.248 170.555 182.066 170.451L181.892 168.427C182.202 168.382 182.527 168.471 182.773 168.669Z" fill="#263238"/>
<path d="M182.565 169.196C182.589 169.163 182.328 168.949 181.932 168.883C181.537 168.812 181.222 168.926 181.234 168.966C181.243 169.011 181.546 168.974 181.906 169.04C182.268 169.099 182.542 169.236 182.565 169.196Z" fill="#455A64"/>
<path d="M182.146 168.347C182.17 168.314 181.801 168.056 181.267 168.006C180.733 167.951 180.323 168.133 180.341 168.17C180.353 168.216 180.756 168.112 181.252 168.164C181.749 168.209 182.126 168.389 182.146 168.347Z" fill="#455A64"/>
<path d="M181.958 167.515C181.965 167.5 181.715 167.349 181.259 167.273C180.805 167.19 180.161 167.223 179.484 167.379C178.806 167.534 178.211 167.72 177.771 167.812C177.333 167.911 177.055 167.939 177.057 167.964C177.057 167.983 177.341 167.995 177.791 167.923C178.242 167.858 178.848 167.687 179.516 167.534C180.184 167.382 180.802 167.333 181.244 167.385C181.688 167.43 181.948 167.541 181.958 167.515Z" fill="#455A64"/>
<path d="M167.706 182.936C167.711 182.935 167.707 182.897 167.701 182.827C167.698 182.76 167.679 182.645 167.72 182.534C167.779 182.445 167.945 182.369 168.102 182.278C168.267 182.189 168.459 182.094 168.671 181.989C169.516 181.566 170.726 181.052 172.003 180.369C172.648 180.044 173.261 179.719 173.833 179.489C174.111 179.398 174.415 179.393 174.687 179.379C174.962 179.369 175.22 179.372 175.455 179.375C175.926 179.384 176.307 179.401 176.571 179.41C176.834 179.42 176.98 179.423 176.981 179.412C176.982 179.402 176.838 179.378 176.575 179.349C176.312 179.32 175.931 179.286 175.459 179.263C175.223 179.252 174.963 179.243 174.684 179.247C174.405 179.257 174.106 179.252 173.785 179.351C173.191 179.581 172.582 179.9 171.934 180.227C170.657 180.909 169.462 181.437 168.622 181.888C168.413 182 168.223 182.103 168.061 182.201C167.978 182.248 167.904 182.297 167.836 182.343C167.772 182.391 167.702 182.433 167.665 182.509C167.623 182.657 167.66 182.761 167.671 182.832C167.686 182.903 167.701 182.938 167.706 182.936Z" fill="#263238"/>
<path d="M135.809 189.308C135.809 189.308 135.873 189.315 135.997 189.32C136.128 189.324 136.312 189.33 136.551 189.338C137.043 189.35 137.76 189.369 138.679 189.392C140.528 189.438 143.203 189.483 146.51 189.517C153.122 189.586 162.259 189.569 172.346 189.317C182.436 189.06 191.564 188.616 198.165 188.213C201.465 188.013 204.135 187.833 205.979 187.694C206.897 187.624 207.611 187.57 208.102 187.532C208.341 187.512 208.524 187.497 208.654 187.486C208.779 187.475 208.842 187.465 208.842 187.465C208.842 187.465 208.778 187.464 208.654 187.47C208.523 187.477 208.34 187.487 208.101 187.5C207.609 187.531 206.894 187.575 205.976 187.632C204.131 187.752 201.46 187.915 198.159 188.101C191.557 188.475 182.431 188.901 172.342 189.157C162.257 189.41 153.123 189.445 146.511 189.404C143.205 189.385 140.529 189.358 138.681 189.33C137.76 189.319 137.044 189.311 136.551 189.306C136.312 189.305 136.128 189.304 135.998 189.303C135.873 189.304 135.809 189.308 135.809 189.308Z" fill="white"/>
<path d="M127.627 183.188C127.627 183.188 127.634 183.185 127.645 183.175L127.653 183.166C127.655 183.163 127.656 183.164 127.658 183.158C127.657 183.144 127.651 183.149 127.647 183.15C127.635 183.155 127.626 183.161 127.614 183.169C127.602 183.178 127.589 183.187 127.575 183.197C127.571 183.199 127.577 183.196 127.583 183.199C127.593 183.217 127.582 183.213 127.589 183.211L127.599 183.202L127.623 183.183C127.656 183.156 127.693 183.125 127.735 183.092C127.912 182.943 128.159 182.736 128.471 182.473C129.114 181.921 130.027 181.135 131.152 180.167C133.408 178.214 136.891 176.011 140.762 173.653C144.645 171.306 148.212 169.273 150.797 167.808C152.083 167.082 153.128 166.493 153.862 166.079C154.215 165.879 154.494 165.721 154.694 165.607C154.782 165.556 154.853 165.514 154.909 165.481C154.957 165.452 154.981 165.436 154.98 165.434C154.979 165.431 154.952 165.443 154.902 165.467C154.844 165.496 154.771 165.533 154.68 165.579C154.476 165.686 154.193 165.835 153.834 166.025C153.101 166.416 152.045 166.99 150.745 167.709C148.146 169.15 144.569 171.168 140.683 173.516C136.81 175.876 133.33 178.096 131.081 180.081C129.969 181.065 129.066 181.864 128.432 182.426C128.128 182.699 127.888 182.913 127.715 183.067C127.676 183.103 127.64 183.136 127.608 183.165L127.586 183.186L127.575 183.195C127.579 183.196 127.564 183.195 127.571 183.216C127.574 183.223 127.587 183.213 127.587 183.213C127.6 183.203 127.612 183.193 127.623 183.183C127.633 183.175 127.643 183.168 127.651 183.162C127.646 183.148 127.644 183.167 127.639 183.17C127.63 183.181 127.627 183.188 127.627 183.188Z" fill="#263238"/>
</g>
<defs>
<clipPath id="clip0_13_6474">
<rect width="220" height="220" rx="36" fill="white"/>
</clipPath>
</defs>
</svg>
