<svg width="220" height="220" viewBox="0 0 220 220" fill="none" xmlns="http://www.w3.org/2000/svg">
<g clip-path="url(#clip0_13_6473)">
<path d="M0 36C0 16.1178 16.1177 0 36 0H184C203.882 0 220 16.1177 220 36V184C220 203.882 203.882 220 184 220H36C16.1178 220 0 203.882 0 184V36Z" fill="#F7ECFF"/>
<path d="M29.7734 31V47H26.3906V31H29.7734ZM32.4941 47V35H35.666V37.1172H35.8066C36.0566 36.4141 36.4733 35.8594 37.0566 35.4531C37.64 35.0469 38.3379 34.8438 39.1504 34.8438C39.9733 34.8438 40.6738 35.0495 41.252 35.4609C41.8301 35.8672 42.2155 36.4193 42.4082 37.1172H42.5332C42.778 36.4297 43.2207 35.8802 43.8613 35.4687C44.5072 35.0521 45.2702 34.8438 46.1504 34.8438C47.2702 34.8438 48.179 35.2005 48.877 35.9141C49.5801 36.6224 49.9316 37.6276 49.9316 38.9297V47H46.6113V39.5859C46.6113 38.9193 46.4342 38.4193 46.0801 38.0859C45.7259 37.7526 45.2832 37.5859 44.752 37.5859C44.1478 37.5859 43.6764 37.7786 43.3379 38.1641C42.9993 38.5443 42.8301 39.0469 42.8301 39.6719V47H39.6035V39.5156C39.6035 38.9271 39.4342 38.4583 39.0957 38.1094C38.7624 37.7604 38.3223 37.5859 37.7754 37.5859C37.4056 37.5859 37.0723 37.6797 36.7754 37.8672C36.4837 38.0495 36.252 38.3073 36.0801 38.6406C35.9082 38.9687 35.8223 39.3542 35.8223 39.7969V47H32.4941ZM52.5605 47V35H55.7324V37.1172H55.873C56.123 36.4141 56.5397 35.8594 57.123 35.4531C57.7064 35.0469 58.4043 34.8438 59.2168 34.8438C60.0397 34.8438 60.7402 35.0495 61.3184 35.4609C61.8965 35.8672 62.2819 36.4193 62.4746 37.1172H62.5996C62.8444 36.4297 63.2871 35.8802 63.9277 35.4687C64.5736 35.0521 65.3366 34.8438 66.2168 34.8438C67.3366 34.8438 68.2454 35.2005 68.9434 35.9141C69.6465 36.6224 69.998 37.6276 69.998 38.9297V47H66.6777V39.5859C66.6777 38.9193 66.5007 38.4193 66.1465 38.0859C65.7923 37.7526 65.3496 37.5859 64.8184 37.5859C64.2142 37.5859 63.7428 37.7786 63.4043 38.1641C63.0658 38.5443 62.8965 39.0469 62.8965 39.6719V47H59.6699V39.5156C59.6699 38.9271 59.5007 38.4583 59.1621 38.1094C58.8288 37.7604 58.3887 37.5859 57.8418 37.5859C57.472 37.5859 57.1387 37.6797 56.8418 37.8672C56.5501 38.0495 56.3184 38.3073 56.1465 38.6406C55.9746 38.9687 55.8887 39.3542 55.8887 39.7969V47H52.5605ZM78.0488 47.2344C76.8353 47.2344 75.7858 46.9766 74.9004 46.4609C74.0202 45.9401 73.3405 45.2161 72.8613 44.2891C72.3822 43.3568 72.1426 42.276 72.1426 41.0469C72.1426 39.8073 72.3822 38.724 72.8613 37.7969C73.3405 36.8646 74.0202 36.1406 74.9004 35.625C75.7858 35.1042 76.8353 34.8438 78.0488 34.8438C79.2624 34.8438 80.3092 35.1042 81.1895 35.625C82.0749 36.1406 82.7572 36.8646 83.2363 37.7969C83.7155 38.724 83.9551 39.8073 83.9551 41.0469C83.9551 42.276 83.7155 43.3568 83.2363 44.2891C82.7572 45.2161 82.0749 45.9401 81.1895 46.4609C80.3092 46.9766 79.2624 47.2344 78.0488 47.2344ZM78.0645 44.6562C78.6165 44.6562 79.0775 44.5 79.4473 44.1875C79.8171 43.8698 80.0957 43.4375 80.2832 42.8906C80.4759 42.3437 80.5723 41.7214 80.5723 41.0234C80.5723 40.3255 80.4759 39.7031 80.2832 39.1562C80.0957 38.6094 79.8171 38.1771 79.4473 37.8594C79.0775 37.5417 78.6165 37.3828 78.0645 37.3828C77.5072 37.3828 77.0384 37.5417 76.6582 37.8594C76.2832 38.1771 75.9993 38.6094 75.8066 39.1562C75.6191 39.7031 75.5254 40.3255 75.5254 41.0234C75.5254 41.7214 75.6191 42.3437 75.8066 42.8906C75.9993 43.4375 76.2832 43.8698 76.6582 44.1875C77.0384 44.5 77.5072 44.6562 78.0645 44.6562ZM86.1816 47V31H89.5098V37.0156H89.6113C89.7572 36.6927 89.9681 36.3646 90.2441 36.0312C90.5254 35.6927 90.89 35.4115 91.3379 35.1875C91.791 34.9583 92.3535 34.8438 93.0254 34.8438C93.9004 34.8438 94.7077 35.0729 95.4473 35.5313C96.1868 35.9844 96.778 36.6693 97.2207 37.5859C97.6634 38.4974 97.8848 39.6406 97.8848 41.0156C97.8848 42.3542 97.6686 43.4844 97.2363 44.4062C96.8092 45.3229 96.2259 46.0182 95.4863 46.4922C94.752 46.9609 93.929 47.1953 93.0176 47.1953C92.3717 47.1953 91.8223 47.0885 91.3691 46.875C90.9212 46.6615 90.554 46.3932 90.2676 46.0703C89.9811 45.7422 89.7624 45.4115 89.6113 45.0781H89.4629V47H86.1816ZM89.4395 41C89.4395 41.7135 89.5384 42.3359 89.7363 42.8672C89.9342 43.3984 90.2207 43.8125 90.5957 44.1094C90.9707 44.401 91.4264 44.5469 91.9629 44.5469C92.5046 44.5469 92.9629 44.3984 93.3379 44.1016C93.7129 43.7995 93.9967 43.3828 94.1895 42.8516C94.3874 42.3151 94.4863 41.6979 94.4863 41C94.4863 40.3073 94.39 39.6979 94.1973 39.1719C94.0046 38.6458 93.7207 38.2344 93.3457 37.9375C92.9707 37.6406 92.5098 37.4922 91.9629 37.4922C91.4212 37.4922 90.9629 37.6354 90.5879 37.9219C90.2181 38.2083 89.9342 38.6146 89.7363 39.1406C89.5384 39.6667 89.4395 40.2865 89.4395 41ZM100.105 47V35H103.434V47H100.105ZM101.777 33.4531C101.283 33.4531 100.858 33.2891 100.504 32.9609C100.155 32.6276 99.9805 32.2292 99.9805 31.7656C99.9805 31.3073 100.155 30.9141 100.504 30.5859C100.858 30.2526 101.283 30.0859 101.777 30.0859C102.272 30.0859 102.694 30.2526 103.043 30.5859C103.397 30.9141 103.574 31.3073 103.574 31.7656C103.574 32.2292 103.397 32.6276 103.043 32.9609C102.694 33.2891 102.272 33.4531 101.777 33.4531ZM109.428 31V47H106.1V31H109.428ZM112.094 47V35H115.422V47H112.094ZM113.766 33.4531C113.271 33.4531 112.846 33.2891 112.492 32.9609C112.143 32.6276 111.969 32.2292 111.969 31.7656C111.969 31.3073 112.143 30.9141 112.492 30.5859C112.846 30.2526 113.271 30.0859 113.766 30.0859C114.26 30.0859 114.682 30.2526 115.031 30.5859C115.385 30.9141 115.563 31.3073 115.563 31.7656C115.563 32.2292 115.385 32.6276 115.031 32.9609C114.682 33.2891 114.26 33.4531 113.766 33.4531ZM123.557 47.2344C122.322 47.2344 121.26 46.9844 120.369 46.4844C119.484 45.9792 118.801 45.2656 118.322 44.3437C117.843 43.4167 117.604 42.3203 117.604 41.0547C117.604 39.8203 117.843 38.737 118.322 37.8047C118.801 36.8724 119.476 36.1458 120.346 35.625C121.221 35.1042 122.247 34.8438 123.424 34.8438C124.215 34.8438 124.952 34.9714 125.635 35.2266C126.322 35.4766 126.921 35.8542 127.432 36.3594C127.947 36.8646 128.348 37.5 128.635 38.2656C128.921 39.026 129.064 39.9167 129.064 40.9375V41.8516H118.932V39.7891H125.932C125.932 39.3099 125.827 38.8854 125.619 38.5156C125.411 38.1458 125.122 37.8568 124.752 37.6484C124.387 37.4349 123.963 37.3281 123.479 37.3281C122.973 37.3281 122.525 37.4453 122.135 37.6797C121.749 37.9089 121.447 38.2187 121.229 38.6094C121.01 38.9948 120.898 39.4245 120.893 39.8984V41.8594C120.893 42.4531 121.002 42.9661 121.221 43.3984C121.445 43.8307 121.76 44.1641 122.166 44.3984C122.572 44.6328 123.054 44.75 123.611 44.75C123.981 44.75 124.32 44.6979 124.627 44.5938C124.934 44.4896 125.197 44.3333 125.416 44.125C125.635 43.9167 125.801 43.6615 125.916 43.3594L128.994 43.5625C128.838 44.3021 128.518 44.9479 128.033 45.5C127.554 46.0469 126.934 46.474 126.174 46.7813C125.419 47.0833 124.546 47.2344 123.557 47.2344ZM134.564 40.0625V47H131.236V35H134.408V37.1172H134.549C134.814 36.4193 135.26 35.8672 135.885 35.4609C136.51 35.0495 137.268 34.8438 138.158 34.8438C138.992 34.8438 139.718 35.026 140.338 35.3906C140.958 35.7552 141.439 36.276 141.783 36.9531C142.127 37.625 142.299 38.4271 142.299 39.3594V47H138.971V39.9531C138.976 39.2187 138.788 38.6458 138.408 38.2344C138.028 37.8177 137.505 37.6094 136.838 37.6094C136.39 37.6094 135.994 37.7057 135.65 37.8984C135.312 38.0911 135.046 38.3724 134.854 38.7422C134.666 39.1068 134.57 39.5469 134.564 40.0625Z" fill="black"/>
<g clip-path="url(#clip1_13_6473)">
<path d="M226.552 162.426H174.496V211.282H226.552V162.426Z" fill="#2D2563"/>
<path d="M228.373 162.426H219.054V211.282H228.373V162.426Z" fill="#1E1A4C"/>
<path d="M202.349 170.513H184.384V209.362H202.349V170.513Z" fill="white"/>
<path opacity="0.3" d="M201.903 171.308H183.938V210.157H201.903V171.308Z" fill="#FEA938"/>
<g opacity="0.5">
<mask id="mask0_13_6473" style="mask-type:luminance" maskUnits="userSpaceOnUse" x="183" y="171" width="20" height="40">
<path d="M202.126 171.308H183.938V210.157H202.126V171.308Z" fill="white"/>
</mask>
<g mask="url(#mask0_13_6473)">
<path d="M234.152 201.089L226.582 208.797L188.12 169.639L195.69 161.932L234.152 201.089Z" fill="white"/>
<path d="M222.269 213.187L221.58 213.889L176.91 168.411L177.599 167.709L222.269 213.187Z" fill="white"/>
<path d="M211.223 223.581L210.534 224.282L165.864 178.804L166.553 178.103L211.223 223.581Z" fill="white"/>
<path d="M234.487 198.875L233.798 199.576L189.127 154.098L189.816 153.396L234.487 198.875Z" fill="white"/>
<path d="M220.512 215.488L216.894 219.171L172.224 173.693L175.841 170.01L220.512 215.488Z" fill="white"/>
</g>
</g>
<path d="M182.625 170.36V210.838H203.214V170.36H182.625ZM201.511 171.989V174.886H184.607V171.989H201.511ZM184.607 176.249H201.511V209.209H184.607V176.249Z" fill="#8195FA"/>
<path d="M214.127 170.513H203.45V209.362H214.127V170.513Z" fill="white"/>
<path opacity="0.3" d="M213.913 171.308H203.004V210.157H213.913V171.308Z" fill="#FEA938"/>
<g opacity="0.5">
<mask id="mask1_13_6473" style="mask-type:luminance" maskUnits="userSpaceOnUse" x="203" y="171" width="12" height="40">
<path d="M214.234 171.308H203.004V210.157H214.234V171.308Z" fill="white"/>
</mask>
<g mask="url(#mask1_13_6473)">
<path d="M253.218 201.089L245.648 208.797L207.185 169.639L214.756 161.932L253.218 201.089Z" fill="white"/>
<path d="M241.335 213.187L240.646 213.889L195.976 168.411L196.664 167.709L241.335 213.187Z" fill="white"/>
<path d="M230.289 223.581L229.6 224.282L184.929 178.804L185.619 178.103L230.289 223.581Z" fill="white"/>
<path d="M253.553 198.875L252.864 199.576L208.193 154.098L208.882 153.396L253.553 198.875Z" fill="white"/>
<path d="M239.578 215.488L235.96 219.171L191.289 173.693L194.907 170.01L239.578 215.488Z" fill="white"/>
</g>
</g>
<path d="M201.691 170.36V210.838H215.198V170.36H201.691ZM213.377 171.989V174.886H203.673V171.989H213.377ZM203.673 176.249H213.27V209.209H203.673V176.249Z" fill="#8195FA"/>
<path d="M214.448 186.336H202.987V187.844H214.448V186.336Z" fill="#8195FA"/>
<path d="M209.629 170.643H207.808V210.277H209.629V170.643Z" fill="#8195FA"/>
<path d="M214.448 197.745H202.987V199.253H214.448V197.745Z" fill="#8195FA"/>
<path d="M256.757 161.362H171.282V166.948H256.757V161.362Z" fill="#FFF0F8"/>
<path opacity="0.3" d="M178.352 161.362H171.282V166.948H178.352V161.362Z" fill="#2D2563"/>
<path opacity="0.3" d="M256.757 161.362H216.269V166.948H256.757V161.362Z" fill="#2D2563"/>
<path d="M231.372 210.838H169.997V215.36H231.372V210.838Z" fill="#FFF0F8"/>
<path opacity="0.3" d="M231.372 210.838H169.997V215.36H231.372V210.838Z" fill="#2D2563"/>
<path d="M40.6426 167.544L71.8595 170.406L176.062 153.711L193.96 139.152L65.8242 160.628L40.6426 167.544Z" fill="#FFF0F8"/>
<path opacity="0.3" d="M40.6426 167.544L71.8595 170.406L176.062 153.711L193.96 139.152L65.8242 160.628L40.6426 167.544Z" fill="#2D2563"/>
<path d="M193.96 133L40 161.634V167.786L193.96 139.152V133Z" fill="#FFF0F8"/>
<path d="M70.0623 214.144V168.855L110.881 161.776V214.654L70.0623 214.144Z" fill="#FF6688"/>
<mask id="mask2_13_6473" style="mask-type:luminance" maskUnits="userSpaceOnUse" x="70" y="161" width="41" height="54">
<path d="M70.0623 214.562V168.855L110.881 161.776V214.654L70.0623 214.562Z" fill="white"/>
</mask>
<g mask="url(#mask2_13_6473)">
<path d="M88.1366 162.288H80.3565V164.183H88.1366V162.288Z" stroke="#FCE7F1" stroke-width="0.7121" stroke-miterlimit="10"/>
<path d="M95.9168 162.288H88.1367V164.183H95.9168V162.288Z" stroke="#FCE7F1" stroke-width="0.7121" stroke-miterlimit="10"/>
<path d="M103.735 162.288H95.955V164.183H103.735V162.288Z" stroke="#FCE7F1" stroke-width="0.7121" stroke-miterlimit="10"/>
<path d="M111.515 162.288H103.735V164.183H111.515V162.288Z" stroke="#FCE7F1" stroke-width="0.7121" stroke-miterlimit="10"/>
<path d="M91.3885 164.164H83.6084V166.058H91.3885V164.164Z" stroke="#FCE7F1" stroke-width="0.7121" stroke-miterlimit="10"/>
<path d="M99.1687 164.164H91.3885V166.058H99.1687V164.164Z" stroke="#FCE7F1" stroke-width="0.7121" stroke-miterlimit="10"/>
<path d="M106.987 164.164H99.2069V166.058H106.987V164.164Z" stroke="#FCE7F1" stroke-width="0.7121" stroke-miterlimit="10"/>
<path d="M114.767 164.164H106.987V166.058H114.767V164.164Z" stroke="#FCE7F1" stroke-width="0.7121" stroke-miterlimit="10"/>
<path d="M88.1366 166.054H80.3565V167.948H88.1366V166.054Z" stroke="#FCE7F1" stroke-width="0.7121" stroke-miterlimit="10"/>
<path d="M95.9167 166.054H88.1366V167.948H95.9167V166.054Z" stroke="#FCE7F1" stroke-width="0.7121" stroke-miterlimit="10"/>
<path d="M103.735 166.054H95.955V167.948H103.735V166.054Z" stroke="#FCE7F1" stroke-width="0.7121" stroke-miterlimit="10"/>
<path d="M111.515 166.054H103.735V167.948H111.515V166.054Z" stroke="#FCE7F1" stroke-width="0.7121" stroke-miterlimit="10"/>
<path d="M91.3885 167.971H83.6084V169.865H91.3885V167.971Z" stroke="#FCE7F1" stroke-width="0.7121" stroke-miterlimit="10"/>
<path d="M99.1687 167.971H91.3885V169.865H99.1687V167.971Z" stroke="#FCE7F1" stroke-width="0.7121" stroke-miterlimit="10"/>
<path d="M106.987 167.971H99.2069V169.865H106.987V167.971Z" stroke="#FCE7F1" stroke-width="0.7121" stroke-miterlimit="10"/>
<path d="M114.767 167.971H106.987V169.865H114.767V167.971Z" stroke="#FCE7F1" stroke-width="0.7121" stroke-miterlimit="10"/>
<path d="M88.1366 169.861H80.3565V171.755H88.1366V169.861Z" stroke="#FCE7F1" stroke-width="0.7121" stroke-miterlimit="10"/>
<path d="M95.9168 169.861H88.1367V171.755H95.9168V169.861Z" stroke="#FCE7F1" stroke-width="0.7121" stroke-miterlimit="10"/>
<path d="M103.735 169.861H95.955V171.755H103.735V169.861Z" stroke="#FCE7F1" stroke-width="0.7121" stroke-miterlimit="10"/>
<path d="M111.515 169.861H103.735V171.755H111.515V169.861Z" stroke="#FCE7F1" stroke-width="0.7121" stroke-miterlimit="10"/>
<path d="M91.3885 171.737H83.6084V173.631H91.3885V171.737Z" stroke="#FCE7F1" stroke-width="0.7121" stroke-miterlimit="10"/>
<path d="M99.1687 171.737H91.3885V173.631H99.1687V171.737Z" stroke="#FCE7F1" stroke-width="0.7121" stroke-miterlimit="10"/>
<path d="M106.987 171.737H99.2069V173.631H106.987V171.737Z" stroke="#FCE7F1" stroke-width="0.7121" stroke-miterlimit="10"/>
<path d="M114.767 171.737H106.987V173.631H114.767V171.737Z" stroke="#FCE7F1" stroke-width="0.7121" stroke-miterlimit="10"/>
<path d="M88.1366 173.627H80.3565V175.521H88.1366V173.627Z" stroke="#FCE7F1" stroke-width="0.7121" stroke-miterlimit="10"/>
<path d="M95.9167 173.627H88.1366V175.521H95.9167V173.627Z" stroke="#FCE7F1" stroke-width="0.7121" stroke-miterlimit="10"/>
<path d="M103.735 173.627H95.955V175.521H103.735V173.627Z" stroke="#FCE7F1" stroke-width="0.7121" stroke-miterlimit="10"/>
<path d="M111.515 173.627H103.735V175.521H111.515V173.627Z" stroke="#FCE7F1" stroke-width="0.7121" stroke-miterlimit="10"/>
<path d="M91.3885 175.544H83.6084V177.438H91.3885V175.544Z" stroke="#FCE7F1" stroke-width="0.7121" stroke-miterlimit="10"/>
<path d="M99.1687 175.544H91.3885V177.438H99.1687V175.544Z" stroke="#FCE7F1" stroke-width="0.7121" stroke-miterlimit="10"/>
<path d="M106.987 175.544H99.2069V177.438H106.987V175.544Z" stroke="#FCE7F1" stroke-width="0.7121" stroke-miterlimit="10"/>
<path d="M114.767 175.544H106.987V177.438H114.767V175.544Z" stroke="#FCE7F1" stroke-width="0.7121" stroke-miterlimit="10"/>
<path d="M88.1366 177.517H80.3565V179.411H88.1366V177.517Z" stroke="#FCE7F1" stroke-width="0.7121" stroke-miterlimit="10"/>
<path d="M95.9168 177.517H88.1367V179.411H95.9168V177.517Z" stroke="#FCE7F1" stroke-width="0.7121" stroke-miterlimit="10"/>
<path d="M103.735 177.517H95.955V179.411H103.735V177.517Z" stroke="#FCE7F1" stroke-width="0.7121" stroke-miterlimit="10"/>
<path d="M111.515 177.517H103.735V179.411H111.515V177.517Z" stroke="#FCE7F1" stroke-width="0.7121" stroke-miterlimit="10"/>
<path d="M91.3885 179.393H83.6084V181.287H91.3885V179.393Z" stroke="#FCE7F1" stroke-width="0.7121" stroke-miterlimit="10"/>
<path d="M99.1687 179.393H91.3885V181.287H99.1687V179.393Z" stroke="#FCE7F1" stroke-width="0.7121" stroke-miterlimit="10"/>
<path d="M106.987 179.393H99.2069V181.287H106.987V179.393Z" stroke="#FCE7F1" stroke-width="0.7121" stroke-miterlimit="10"/>
<path d="M114.767 179.393H106.987V181.287H114.767V179.393Z" stroke="#FCE7F1" stroke-width="0.7121" stroke-miterlimit="10"/>
<path d="M88.1366 181.283H80.3565V183.177H88.1366V181.283Z" stroke="#FCE7F1" stroke-width="0.7121" stroke-miterlimit="10"/>
<path d="M95.9167 181.283H88.1366V183.177H95.9167V181.283Z" stroke="#FCE7F1" stroke-width="0.7121" stroke-miterlimit="10"/>
<path d="M103.735 181.283H95.955V183.177H103.735V181.283Z" stroke="#FCE7F1" stroke-width="0.7121" stroke-miterlimit="10"/>
<path d="M111.515 181.283H103.735V183.177H111.515V181.283Z" stroke="#FCE7F1" stroke-width="0.7121" stroke-miterlimit="10"/>
<path d="M91.3885 183.2H83.6084V185.094H91.3885V183.2Z" stroke="#FCE7F1" stroke-width="0.7121" stroke-miterlimit="10"/>
<path d="M99.1687 183.2H91.3885V185.094H99.1687V183.2Z" stroke="#FCE7F1" stroke-width="0.7121" stroke-miterlimit="10"/>
<path d="M106.987 183.2H99.2069V185.094H106.987V183.2Z" stroke="#FCE7F1" stroke-width="0.7121" stroke-miterlimit="10"/>
<path d="M114.767 183.2H106.987V185.094H114.767V183.2Z" stroke="#FCE7F1" stroke-width="0.7121" stroke-miterlimit="10"/>
<path d="M88.1366 185.139H80.3565V187.034H88.1366V185.139Z" stroke="#FCE7F1" stroke-width="0.7121" stroke-miterlimit="10"/>
<path d="M95.9168 185.139H88.1367V187.034H95.9168V185.139Z" stroke="#FCE7F1" stroke-width="0.7121" stroke-miterlimit="10"/>
<path d="M103.735 185.139H95.955V187.034H103.735V185.139Z" stroke="#FCE7F1" stroke-width="0.7121" stroke-miterlimit="10"/>
<path d="M111.515 185.139H103.735V187.034H111.515V185.139Z" stroke="#FCE7F1" stroke-width="0.7121" stroke-miterlimit="10"/>
<path d="M91.3885 187.015H83.6084V188.909H91.3885V187.015Z" stroke="#FCE7F1" stroke-width="0.7121" stroke-miterlimit="10"/>
<path d="M99.1687 187.015H91.3885V188.909H99.1687V187.015Z" stroke="#FCE7F1" stroke-width="0.7121" stroke-miterlimit="10"/>
<path d="M106.987 187.015H99.2069V188.909H106.987V187.015Z" stroke="#FCE7F1" stroke-width="0.7121" stroke-miterlimit="10"/>
<path d="M114.767 187.015H106.987V188.909H114.767V187.015Z" stroke="#FCE7F1" stroke-width="0.7121" stroke-miterlimit="10"/>
<path d="M88.1366 188.905H80.3565V190.799H88.1366V188.905Z" stroke="#FCE7F1" stroke-width="0.7121" stroke-miterlimit="10"/>
<path d="M95.9167 188.905H88.1366V190.799H95.9167V188.905Z" stroke="#FCE7F1" stroke-width="0.7121" stroke-miterlimit="10"/>
<path d="M103.735 188.905H95.955V190.799H103.735V188.905Z" stroke="#FCE7F1" stroke-width="0.7121" stroke-miterlimit="10"/>
<path d="M111.515 188.905H103.735V190.799H111.515V188.905Z" stroke="#FCE7F1" stroke-width="0.7121" stroke-miterlimit="10"/>
<path d="M91.3885 190.822H83.6084V192.716H91.3885V190.822Z" stroke="#FCE7F1" stroke-width="0.7121" stroke-miterlimit="10"/>
<path d="M99.1687 190.822H91.3885V192.716H99.1687V190.822Z" stroke="#FCE7F1" stroke-width="0.7121" stroke-miterlimit="10"/>
<path d="M106.987 190.822H99.2069V192.716H106.987V190.822Z" stroke="#FCE7F1" stroke-width="0.7121" stroke-miterlimit="10"/>
<path d="M114.767 190.822H106.987V192.716H114.767V190.822Z" stroke="#FCE7F1" stroke-width="0.7121" stroke-miterlimit="10"/>
<path d="M88.1366 192.795H80.3565V194.69H88.1366V192.795Z" stroke="#FCE7F1" stroke-width="0.7121" stroke-miterlimit="10"/>
<path d="M95.9168 192.795H88.1367V194.69H95.9168V192.795Z" stroke="#FCE7F1" stroke-width="0.7121" stroke-miterlimit="10"/>
<path d="M103.735 192.795H95.955V194.69H103.735V192.795Z" stroke="#FCE7F1" stroke-width="0.7121" stroke-miterlimit="10"/>
<path d="M111.515 192.795H103.735V194.69H111.515V192.795Z" stroke="#FCE7F1" stroke-width="0.7121" stroke-miterlimit="10"/>
<path d="M91.3885 194.671H83.6084V196.565H91.3885V194.671Z" stroke="#FCE7F1" stroke-width="0.7121" stroke-miterlimit="10"/>
<path d="M99.1687 194.671H91.3885V196.565H99.1687V194.671Z" stroke="#FCE7F1" stroke-width="0.7121" stroke-miterlimit="10"/>
<path d="M106.987 194.671H99.2069V196.565H106.987V194.671Z" stroke="#FCE7F1" stroke-width="0.7121" stroke-miterlimit="10"/>
<path d="M114.767 194.671H106.987V196.565H114.767V194.671Z" stroke="#FCE7F1" stroke-width="0.7121" stroke-miterlimit="10"/>
<path d="M88.1366 196.561H80.3565V198.455H88.1366V196.561Z" stroke="#FCE7F1" stroke-width="0.7121" stroke-miterlimit="10"/>
<path d="M95.9167 196.561H88.1366V198.455H95.9167V196.561Z" stroke="#FCE7F1" stroke-width="0.7121" stroke-miterlimit="10"/>
<path d="M103.735 196.561H95.955V198.455H103.735V196.561Z" stroke="#FCE7F1" stroke-width="0.7121" stroke-miterlimit="10"/>
<path d="M111.515 196.561H103.735V198.455H111.515V196.561Z" stroke="#FCE7F1" stroke-width="0.7121" stroke-miterlimit="10"/>
<path d="M91.3885 198.479H83.6084V200.373H91.3885V198.479Z" stroke="#FCE7F1" stroke-width="0.7121" stroke-miterlimit="10"/>
<path d="M99.1687 198.479H91.3885V200.373H99.1687V198.479Z" stroke="#FCE7F1" stroke-width="0.7121" stroke-miterlimit="10"/>
<path d="M106.987 198.479H99.2069V200.373H106.987V198.479Z" stroke="#FCE7F1" stroke-width="0.7121" stroke-miterlimit="10"/>
<path d="M114.767 198.479H106.987V200.373H114.767V198.479Z" stroke="#FCE7F1" stroke-width="0.7121" stroke-miterlimit="10"/>
<path d="M72.5755 162.288H64.7953V164.183H72.5755V162.288Z" stroke="#FCE7F1" stroke-width="0.7121" stroke-miterlimit="10"/>
<path d="M80.3556 162.288H72.5754V164.183H80.3556V162.288Z" stroke="#FCE7F1" stroke-width="0.7121" stroke-miterlimit="10"/>
<path d="M75.8274 164.164H68.0472V166.058H75.8274V164.164Z" stroke="#FCE7F1" stroke-width="0.7121" stroke-miterlimit="10"/>
<path d="M83.6075 164.164H75.8273V166.058H83.6075V164.164Z" stroke="#FCE7F1" stroke-width="0.7121" stroke-miterlimit="10"/>
<path d="M72.5755 166.054H64.7953V167.948H72.5755V166.054Z" stroke="#FCE7F1" stroke-width="0.7121" stroke-miterlimit="10"/>
<path d="M80.3556 166.054H72.5754V167.948H80.3556V166.054Z" stroke="#FCE7F1" stroke-width="0.7121" stroke-miterlimit="10"/>
<path d="M75.8274 167.971H68.0472V169.865H75.8274V167.971Z" stroke="#FCE7F1" stroke-width="0.7121" stroke-miterlimit="10"/>
<path d="M83.6075 167.971H75.8273V169.865H83.6075V167.971Z" stroke="#FCE7F1" stroke-width="0.7121" stroke-miterlimit="10"/>
<path d="M72.5755 169.861H64.7953V171.755H72.5755V169.861Z" stroke="#FCE7F1" stroke-width="0.7121" stroke-miterlimit="10"/>
<path d="M80.3556 169.861H72.5754V171.755H80.3556V169.861Z" stroke="#FCE7F1" stroke-width="0.7121" stroke-miterlimit="10"/>
<path d="M75.8274 171.737H68.0472V173.631H75.8274V171.737Z" stroke="#FCE7F1" stroke-width="0.7121" stroke-miterlimit="10"/>
<path d="M83.6075 171.737H75.8273V173.631H83.6075V171.737Z" stroke="#FCE7F1" stroke-width="0.7121" stroke-miterlimit="10"/>
<path d="M72.5755 173.627H64.7953V175.521H72.5755V173.627Z" stroke="#FCE7F1" stroke-width="0.7121" stroke-miterlimit="10"/>
<path d="M80.3556 173.627H72.5754V175.521H80.3556V173.627Z" stroke="#FCE7F1" stroke-width="0.7121" stroke-miterlimit="10"/>
<path d="M75.8274 175.544H68.0472V177.438H75.8274V175.544Z" stroke="#FCE7F1" stroke-width="0.7121" stroke-miterlimit="10"/>
<path d="M83.6075 175.544H75.8273V177.438H83.6075V175.544Z" stroke="#FCE7F1" stroke-width="0.7121" stroke-miterlimit="10"/>
<path d="M72.5755 177.517H64.7953V179.411H72.5755V177.517Z" stroke="#FCE7F1" stroke-width="0.7121" stroke-miterlimit="10"/>
<path d="M80.3556 177.517H72.5754V179.411H80.3556V177.517Z" stroke="#FCE7F1" stroke-width="0.7121" stroke-miterlimit="10"/>
<path d="M75.8274 179.393H68.0472V181.287H75.8274V179.393Z" stroke="#FCE7F1" stroke-width="0.7121" stroke-miterlimit="10"/>
<path d="M83.6075 179.393H75.8273V181.287H83.6075V179.393Z" stroke="#FCE7F1" stroke-width="0.7121" stroke-miterlimit="10"/>
<path d="M72.5755 181.283H64.7953V183.177H72.5755V181.283Z" stroke="#FCE7F1" stroke-width="0.7121" stroke-miterlimit="10"/>
<path d="M80.3556 181.283H72.5754V183.177H80.3556V181.283Z" stroke="#FCE7F1" stroke-width="0.7121" stroke-miterlimit="10"/>
<path d="M75.8274 183.2H68.0472V185.094H75.8274V183.2Z" stroke="#FCE7F1" stroke-width="0.7121" stroke-miterlimit="10"/>
<path d="M83.6075 183.2H75.8273V185.094H83.6075V183.2Z" stroke="#FCE7F1" stroke-width="0.7121" stroke-miterlimit="10"/>
<path d="M72.5755 185.139H64.7953V187.034H72.5755V185.139Z" stroke="#FCE7F1" stroke-width="0.7121" stroke-miterlimit="10"/>
<path d="M80.3556 185.139H72.5754V187.034H80.3556V185.139Z" stroke="#FCE7F1" stroke-width="0.7121" stroke-miterlimit="10"/>
<path d="M75.8274 187.015H68.0472V188.909H75.8274V187.015Z" stroke="#FCE7F1" stroke-width="0.7121" stroke-miterlimit="10"/>
<path d="M83.6075 187.015H75.8273V188.909H83.6075V187.015Z" stroke="#FCE7F1" stroke-width="0.7121" stroke-miterlimit="10"/>
<path d="M72.5755 188.905H64.7953V190.799H72.5755V188.905Z" stroke="#FCE7F1" stroke-width="0.7121" stroke-miterlimit="10"/>
<path d="M80.3556 188.905H72.5754V190.799H80.3556V188.905Z" stroke="#FCE7F1" stroke-width="0.7121" stroke-miterlimit="10"/>
<path d="M75.8274 190.822H68.0472V192.716H75.8274V190.822Z" stroke="#FCE7F1" stroke-width="0.7121" stroke-miterlimit="10"/>
<path d="M83.6075 190.822H75.8273V192.716H83.6075V190.822Z" stroke="#FCE7F1" stroke-width="0.7121" stroke-miterlimit="10"/>
<path d="M72.5755 192.795H64.7953V194.69H72.5755V192.795Z" stroke="#FCE7F1" stroke-width="0.7121" stroke-miterlimit="10"/>
<path d="M80.3556 192.795H72.5754V194.69H80.3556V192.795Z" stroke="#FCE7F1" stroke-width="0.7121" stroke-miterlimit="10"/>
<path d="M75.8274 194.671H68.0472V196.565H75.8274V194.671Z" stroke="#FCE7F1" stroke-width="0.7121" stroke-miterlimit="10"/>
<path d="M83.6075 194.671H75.8273V196.565H83.6075V194.671Z" stroke="#FCE7F1" stroke-width="0.7121" stroke-miterlimit="10"/>
<path d="M72.5755 196.561H64.7953V198.455H72.5755V196.561Z" stroke="#FCE7F1" stroke-width="0.7121" stroke-miterlimit="10"/>
<path d="M80.3556 196.561H72.5754V198.455H80.3556V196.561Z" stroke="#FCE7F1" stroke-width="0.7121" stroke-miterlimit="10"/>
<path d="M75.8274 198.479H68.0472V200.373H75.8274V198.479Z" stroke="#FCE7F1" stroke-width="0.7121" stroke-miterlimit="10"/>
<path d="M83.6075 198.479H75.8273V200.373H83.6075V198.479Z" stroke="#FCE7F1" stroke-width="0.7121" stroke-miterlimit="10"/>
<path d="M88.1366 200.368H80.3565V202.262H88.1366V200.368Z" stroke="#FCE7F1" stroke-width="0.7121" stroke-miterlimit="10"/>
<path d="M95.9168 200.368H88.1367V202.262H95.9168V200.368Z" stroke="#FCE7F1" stroke-width="0.7121" stroke-miterlimit="10"/>
<path d="M103.735 200.368H95.955V202.262H103.735V200.368Z" stroke="#FCE7F1" stroke-width="0.7121" stroke-miterlimit="10"/>
<path d="M111.515 200.368H103.735V202.262H111.515V200.368Z" stroke="#FCE7F1" stroke-width="0.7121" stroke-miterlimit="10"/>
<path d="M91.3885 202.244H83.6084V204.138H91.3885V202.244Z" stroke="#FCE7F1" stroke-width="0.7121" stroke-miterlimit="10"/>
<path d="M99.1687 202.244H91.3885V204.138H99.1687V202.244Z" stroke="#FCE7F1" stroke-width="0.7121" stroke-miterlimit="10"/>
<path d="M106.987 202.244H99.2069V204.138H106.987V202.244Z" stroke="#FCE7F1" stroke-width="0.7121" stroke-miterlimit="10"/>
<path d="M114.767 202.244H106.987V204.138H114.767V202.244Z" stroke="#FCE7F1" stroke-width="0.7121" stroke-miterlimit="10"/>
<path d="M88.1366 204.134H80.3565V206.028H88.1366V204.134Z" stroke="#FCE7F1" stroke-width="0.7121" stroke-miterlimit="10"/>
<path d="M95.9167 204.134H88.1366V206.028H95.9167V204.134Z" stroke="#FCE7F1" stroke-width="0.7121" stroke-miterlimit="10"/>
<path d="M103.735 204.134H95.955V206.028H103.735V204.134Z" stroke="#FCE7F1" stroke-width="0.7121" stroke-miterlimit="10"/>
<path d="M111.515 204.134H103.735V206.028H111.515V204.134Z" stroke="#FCE7F1" stroke-width="0.7121" stroke-miterlimit="10"/>
<path d="M91.3885 206.051H83.6084V207.945H91.3885V206.051Z" stroke="#FCE7F1" stroke-width="0.7121" stroke-miterlimit="10"/>
<path d="M99.1687 206.051H91.3885V207.945H99.1687V206.051Z" stroke="#FCE7F1" stroke-width="0.7121" stroke-miterlimit="10"/>
<path d="M106.987 206.051H99.2069V207.945H106.987V206.051Z" stroke="#FCE7F1" stroke-width="0.7121" stroke-miterlimit="10"/>
<path d="M114.767 206.051H106.987V207.945H114.767V206.051Z" stroke="#FCE7F1" stroke-width="0.7121" stroke-miterlimit="10"/>
<path d="M88.1366 208.024H80.3565V209.918H88.1366V208.024Z" stroke="#FCE7F1" stroke-width="0.7121" stroke-miterlimit="10"/>
<path d="M95.9168 208.024H88.1367V209.918H95.9168V208.024Z" stroke="#FCE7F1" stroke-width="0.7121" stroke-miterlimit="10"/>
<path d="M103.735 208.024H95.955V209.918H103.735V208.024Z" stroke="#FCE7F1" stroke-width="0.7121" stroke-miterlimit="10"/>
<path d="M111.515 208.024H103.735V209.918H111.515V208.024Z" stroke="#FCE7F1" stroke-width="0.7121" stroke-miterlimit="10"/>
<path d="M91.3885 209.9H83.6084V211.794H91.3885V209.9Z" stroke="#FCE7F1" stroke-width="0.7121" stroke-miterlimit="10"/>
<path d="M99.1687 209.9H91.3885V211.794H99.1687V209.9Z" stroke="#FCE7F1" stroke-width="0.7121" stroke-miterlimit="10"/>
<path d="M106.987 209.9H99.2069V211.794H106.987V209.9Z" stroke="#FCE7F1" stroke-width="0.7121" stroke-miterlimit="10"/>
<path d="M114.767 209.9H106.987V211.794H114.767V209.9Z" stroke="#FCE7F1" stroke-width="0.7121" stroke-miterlimit="10"/>
<path d="M88.1366 211.79H80.3565V213.684H88.1366V211.79Z" stroke="#FCE7F1" stroke-width="0.7121" stroke-miterlimit="10"/>
<path d="M95.9167 211.79H88.1366V213.684H95.9167V211.79Z" stroke="#FCE7F1" stroke-width="0.7121" stroke-miterlimit="10"/>
<path d="M103.735 211.79H95.955V213.684H103.735V211.79Z" stroke="#FCE7F1" stroke-width="0.7121" stroke-miterlimit="10"/>
<path d="M111.515 211.79H103.735V213.684H111.515V211.79Z" stroke="#FCE7F1" stroke-width="0.7121" stroke-miterlimit="10"/>
<path d="M91.3885 213.707H83.6084V215.601H91.3885V213.707Z" stroke="#FCE7F1" stroke-width="0.7121" stroke-miterlimit="10"/>
<path d="M99.1687 213.707H91.3885V215.601H99.1687V213.707Z" stroke="#FCE7F1" stroke-width="0.7121" stroke-miterlimit="10"/>
<path d="M106.987 213.707H99.2069V215.601H106.987V213.707Z" stroke="#FCE7F1" stroke-width="0.7121" stroke-miterlimit="10"/>
<path d="M114.767 213.707H106.987V215.601H114.767V213.707Z" stroke="#FCE7F1" stroke-width="0.7121" stroke-miterlimit="10"/>
<path d="M72.463 200.368H64.6829V202.262H72.463V200.368Z" stroke="#FCE7F1" stroke-width="0.7121" stroke-miterlimit="10"/>
<path d="M80.2434 200.368H72.4633V202.262H80.2434V200.368Z" stroke="#FCE7F1" stroke-width="0.7121" stroke-miterlimit="10"/>
<path d="M75.7149 202.244H67.9348V204.138H75.7149V202.244Z" stroke="#FCE7F1" stroke-width="0.7121" stroke-miterlimit="10"/>
<path d="M83.495 202.244H75.7149V204.138H83.495V202.244Z" stroke="#FCE7F1" stroke-width="0.7121" stroke-miterlimit="10"/>
<path d="M72.463 204.134H64.6829V206.028H72.463V204.134Z" stroke="#FCE7F1" stroke-width="0.7121" stroke-miterlimit="10"/>
<path d="M80.2434 204.134H72.4633V206.028H80.2434V204.134Z" stroke="#FCE7F1" stroke-width="0.7121" stroke-miterlimit="10"/>
<path d="M75.7149 206.051H67.9348V207.945H75.7149V206.051Z" stroke="#FCE7F1" stroke-width="0.7121" stroke-miterlimit="10"/>
<path d="M83.495 206.051H75.7149V207.945H83.495V206.051Z" stroke="#FCE7F1" stroke-width="0.7121" stroke-miterlimit="10"/>
<path d="M72.463 208.024H64.6829V209.918H72.463V208.024Z" stroke="#FCE7F1" stroke-width="0.7121" stroke-miterlimit="10"/>
<path d="M80.2434 208.024H72.4633V209.918H80.2434V208.024Z" stroke="#FCE7F1" stroke-width="0.7121" stroke-miterlimit="10"/>
<path d="M75.7149 209.9H67.9348V211.794H75.7149V209.9Z" stroke="#FCE7F1" stroke-width="0.7121" stroke-miterlimit="10"/>
<path d="M83.495 209.9H75.7149V211.794H83.495V209.9Z" stroke="#FCE7F1" stroke-width="0.7121" stroke-miterlimit="10"/>
<path d="M72.463 211.79H64.6829V213.684H72.463V211.79Z" stroke="#FCE7F1" stroke-width="0.7121" stroke-miterlimit="10"/>
<path d="M80.2434 211.79H72.4633V213.684H80.2434V211.79Z" stroke="#FCE7F1" stroke-width="0.7121" stroke-miterlimit="10"/>
<path d="M75.7149 213.707H67.9348V215.601H75.7149V213.707Z" stroke="#FCE7F1" stroke-width="0.7121" stroke-miterlimit="10"/>
<path d="M83.495 213.707H75.7149V215.601H83.495V213.707Z" stroke="#FCE7F1" stroke-width="0.7121" stroke-miterlimit="10"/>
</g>
<path opacity="0.3" d="M70.0623 214.562V168.855L110.881 161.776V214.654L70.0623 214.562Z" fill="#2D2563"/>
<path opacity="0.3" d="M90.4686 165.473V214.503L110.881 214.654V161.776L90.4686 165.473Z" fill="#2D2563"/>
<path d="M109.629 208.358H67.9573V215.589H109.629V208.358Z" fill="#FFF0F8"/>
<path opacity="0.3" d="M109.629 208.358H67.9573V215.589H109.629V208.358Z" fill="#2D2563"/>
<path opacity="0.3" d="M109.629 208.358H87.8799V215.589H109.629V208.358Z" fill="#2D2563"/>
<path d="M104.124 217.222V157.106L176.102 144.072V217.754L104.124 217.222Z" fill="#FF6688"/>
<mask id="mask3_13_6473" style="mask-type:luminance" maskUnits="userSpaceOnUse" x="104" y="144" width="73" height="74">
<path d="M104.124 217.222V157.106L176.102 144.072V217.754L104.124 217.222Z" fill="white"/>
</mask>
<g mask="url(#mask3_13_6473)">
<path d="M152.409 144.606H144.304V146.579H152.409V144.606Z" stroke="#FCE7F1" stroke-width="0.7418" stroke-miterlimit="10"/>
<path d="M160.514 144.606H152.409V146.579H160.514V144.606Z" stroke="#FCE7F1" stroke-width="0.7418" stroke-miterlimit="10"/>
<path d="M168.658 144.606H160.554V146.579H168.658V144.606Z" stroke="#FCE7F1" stroke-width="0.7418" stroke-miterlimit="10"/>
<path d="M176.763 144.606H168.658V146.579H176.763V144.606Z" stroke="#FCE7F1" stroke-width="0.7418" stroke-miterlimit="10"/>
<path d="M155.797 146.56H147.692V148.533H155.797V146.56Z" stroke="#FCE7F1" stroke-width="0.7418" stroke-miterlimit="10"/>
<path d="M163.901 146.56H155.797V148.533H163.901V146.56Z" stroke="#FCE7F1" stroke-width="0.7418" stroke-miterlimit="10"/>
<path d="M172.046 146.56H163.941V148.533H172.046V146.56Z" stroke="#FCE7F1" stroke-width="0.7418" stroke-miterlimit="10"/>
<path d="M180.151 146.56H172.046V148.533H180.151V146.56Z" stroke="#FCE7F1" stroke-width="0.7418" stroke-miterlimit="10"/>
<path d="M152.409 148.529H144.304V150.502H152.409V148.529Z" stroke="#FCE7F1" stroke-width="0.7418" stroke-miterlimit="10"/>
<path d="M160.514 148.529H152.409V150.502H160.514V148.529Z" stroke="#FCE7F1" stroke-width="0.7418" stroke-miterlimit="10"/>
<path d="M168.658 148.529H160.554V150.502H168.658V148.529Z" stroke="#FCE7F1" stroke-width="0.7418" stroke-miterlimit="10"/>
<path d="M176.763 148.529H168.658V150.502H176.763V148.529Z" stroke="#FCE7F1" stroke-width="0.7418" stroke-miterlimit="10"/>
<path d="M155.797 150.526H147.692V152.499H155.797V150.526Z" stroke="#FCE7F1" stroke-width="0.7418" stroke-miterlimit="10"/>
<path d="M163.901 150.526H155.797V152.499H163.901V150.526Z" stroke="#FCE7F1" stroke-width="0.7418" stroke-miterlimit="10"/>
<path d="M172.046 150.526H163.941V152.499H172.046V150.526Z" stroke="#FCE7F1" stroke-width="0.7418" stroke-miterlimit="10"/>
<path d="M180.151 150.526H172.046V152.499H180.151V150.526Z" stroke="#FCE7F1" stroke-width="0.7418" stroke-miterlimit="10"/>
<path d="M152.409 152.494H144.304V154.468H152.409V152.494Z" stroke="#FCE7F1" stroke-width="0.7418" stroke-miterlimit="10"/>
<path d="M160.514 152.494H152.409V154.468H160.514V152.494Z" stroke="#FCE7F1" stroke-width="0.7418" stroke-miterlimit="10"/>
<path d="M168.658 152.494H160.554V154.468H168.658V152.494Z" stroke="#FCE7F1" stroke-width="0.7418" stroke-miterlimit="10"/>
<path d="M176.763 152.494H168.658V154.468H176.763V152.494Z" stroke="#FCE7F1" stroke-width="0.7418" stroke-miterlimit="10"/>
<path d="M155.797 154.448H147.692V156.422H155.797V154.448Z" stroke="#FCE7F1" stroke-width="0.7418" stroke-miterlimit="10"/>
<path d="M163.901 154.448H155.797V156.422H163.901V154.448Z" stroke="#FCE7F1" stroke-width="0.7418" stroke-miterlimit="10"/>
<path d="M172.046 154.448H163.941V156.422H172.046V154.448Z" stroke="#FCE7F1" stroke-width="0.7418" stroke-miterlimit="10"/>
<path d="M180.151 154.448H172.046V156.422H180.151V154.448Z" stroke="#FCE7F1" stroke-width="0.7418" stroke-miterlimit="10"/>
<path d="M152.409 156.417H144.304V158.39H152.409V156.417Z" stroke="#FCE7F1" stroke-width="0.7418" stroke-miterlimit="10"/>
<path d="M160.514 156.417H152.409V158.39H160.514V156.417Z" stroke="#FCE7F1" stroke-width="0.7418" stroke-miterlimit="10"/>
<path d="M168.658 156.417H160.554V158.39H168.658V156.417Z" stroke="#FCE7F1" stroke-width="0.7418" stroke-miterlimit="10"/>
<path d="M176.763 156.417H168.658V158.39H176.763V156.417Z" stroke="#FCE7F1" stroke-width="0.7418" stroke-miterlimit="10"/>
<path d="M155.797 158.415H147.692V160.388H155.797V158.415Z" stroke="#FCE7F1" stroke-width="0.7418" stroke-miterlimit="10"/>
<path d="M163.901 158.415H155.797V160.388H163.901V158.415Z" stroke="#FCE7F1" stroke-width="0.7418" stroke-miterlimit="10"/>
<path d="M172.046 158.415H163.941V160.388H172.046V158.415Z" stroke="#FCE7F1" stroke-width="0.7418" stroke-miterlimit="10"/>
<path d="M180.151 158.415H172.046V160.388H180.151V158.415Z" stroke="#FCE7F1" stroke-width="0.7418" stroke-miterlimit="10"/>
<path d="M152.409 160.47H144.304V162.443H152.409V160.47Z" stroke="#FCE7F1" stroke-width="0.7418" stroke-miterlimit="10"/>
<path d="M160.514 160.47H152.409V162.443H160.514V160.47Z" stroke="#FCE7F1" stroke-width="0.7418" stroke-miterlimit="10"/>
<path d="M168.658 160.47H160.554V162.443H168.658V160.47Z" stroke="#FCE7F1" stroke-width="0.7418" stroke-miterlimit="10"/>
<path d="M176.763 160.47H168.658V162.443H176.763V160.47Z" stroke="#FCE7F1" stroke-width="0.7418" stroke-miterlimit="10"/>
<path d="M155.797 162.424H147.692V164.397H155.797V162.424Z" stroke="#FCE7F1" stroke-width="0.7418" stroke-miterlimit="10"/>
<path d="M163.901 162.424H155.797V164.397H163.901V162.424Z" stroke="#FCE7F1" stroke-width="0.7418" stroke-miterlimit="10"/>
<path d="M172.046 162.424H163.941V164.397H172.046V162.424Z" stroke="#FCE7F1" stroke-width="0.7418" stroke-miterlimit="10"/>
<path d="M180.151 162.424H172.046V164.397H180.151V162.424Z" stroke="#FCE7F1" stroke-width="0.7418" stroke-miterlimit="10"/>
<path d="M152.409 164.393H144.304V166.366H152.409V164.393Z" stroke="#FCE7F1" stroke-width="0.7418" stroke-miterlimit="10"/>
<path d="M160.514 164.393H152.409V166.366H160.514V164.393Z" stroke="#FCE7F1" stroke-width="0.7418" stroke-miterlimit="10"/>
<path d="M168.658 164.393H160.554V166.366H168.658V164.393Z" stroke="#FCE7F1" stroke-width="0.7418" stroke-miterlimit="10"/>
<path d="M176.763 164.393H168.658V166.366H176.763V164.393Z" stroke="#FCE7F1" stroke-width="0.7418" stroke-miterlimit="10"/>
<path d="M155.797 166.39H147.692V168.363H155.797V166.39Z" stroke="#FCE7F1" stroke-width="0.7418" stroke-miterlimit="10"/>
<path d="M163.901 166.39H155.797V168.363H163.901V166.39Z" stroke="#FCE7F1" stroke-width="0.7418" stroke-miterlimit="10"/>
<path d="M172.046 166.39H163.941V168.363H172.046V166.39Z" stroke="#FCE7F1" stroke-width="0.7418" stroke-miterlimit="10"/>
<path d="M180.151 166.39H172.046V168.363H180.151V166.39Z" stroke="#FCE7F1" stroke-width="0.7418" stroke-miterlimit="10"/>
<path d="M152.409 168.41H144.304V170.384H152.409V168.41Z" stroke="#FCE7F1" stroke-width="0.7418" stroke-miterlimit="10"/>
<path d="M160.514 168.41H152.409V170.384H160.514V168.41Z" stroke="#FCE7F1" stroke-width="0.7418" stroke-miterlimit="10"/>
<path d="M168.658 168.41H160.554V170.384H168.658V168.41Z" stroke="#FCE7F1" stroke-width="0.7418" stroke-miterlimit="10"/>
<path d="M176.763 168.41H168.658V170.384H176.763V168.41Z" stroke="#FCE7F1" stroke-width="0.7418" stroke-miterlimit="10"/>
<path d="M155.797 170.365H147.692V172.338H155.797V170.365Z" stroke="#FCE7F1" stroke-width="0.7418" stroke-miterlimit="10"/>
<path d="M163.901 170.365H155.797V172.338H163.901V170.365Z" stroke="#FCE7F1" stroke-width="0.7418" stroke-miterlimit="10"/>
<path d="M172.046 170.365H163.941V172.338H172.046V170.365Z" stroke="#FCE7F1" stroke-width="0.7418" stroke-miterlimit="10"/>
<path d="M180.151 170.365H172.046V172.338H180.151V170.365Z" stroke="#FCE7F1" stroke-width="0.7418" stroke-miterlimit="10"/>
<path d="M152.409 172.333H144.304V174.306H152.409V172.333Z" stroke="#FCE7F1" stroke-width="0.7418" stroke-miterlimit="10"/>
<path d="M160.514 172.333H152.409V174.306H160.514V172.333Z" stroke="#FCE7F1" stroke-width="0.7418" stroke-miterlimit="10"/>
<path d="M168.658 172.333H160.554V174.306H168.658V172.333Z" stroke="#FCE7F1" stroke-width="0.7418" stroke-miterlimit="10"/>
<path d="M176.763 172.333H168.658V174.306H176.763V172.333Z" stroke="#FCE7F1" stroke-width="0.7418" stroke-miterlimit="10"/>
<path d="M155.797 174.33H147.692V176.304H155.797V174.33Z" stroke="#FCE7F1" stroke-width="0.7418" stroke-miterlimit="10"/>
<path d="M163.901 174.33H155.797V176.304H163.901V174.33Z" stroke="#FCE7F1" stroke-width="0.7418" stroke-miterlimit="10"/>
<path d="M172.046 174.33H163.941V176.304H172.046V174.33Z" stroke="#FCE7F1" stroke-width="0.7418" stroke-miterlimit="10"/>
<path d="M180.151 174.33H172.046V176.304H180.151V174.33Z" stroke="#FCE7F1" stroke-width="0.7418" stroke-miterlimit="10"/>
<path d="M152.409 176.386H144.304V178.359H152.409V176.386Z" stroke="#FCE7F1" stroke-width="0.7418" stroke-miterlimit="10"/>
<path d="M160.514 176.386H152.409V178.359H160.514V176.386Z" stroke="#FCE7F1" stroke-width="0.7418" stroke-miterlimit="10"/>
<path d="M168.658 176.386H160.554V178.359H168.658V176.386Z" stroke="#FCE7F1" stroke-width="0.7418" stroke-miterlimit="10"/>
<path d="M176.763 176.386H168.658V178.359H176.763V176.386Z" stroke="#FCE7F1" stroke-width="0.7418" stroke-miterlimit="10"/>
<path d="M155.797 178.34H147.692V180.313H155.797V178.34Z" stroke="#FCE7F1" stroke-width="0.7418" stroke-miterlimit="10"/>
<path d="M163.901 178.34H155.797V180.313H163.901V178.34Z" stroke="#FCE7F1" stroke-width="0.7418" stroke-miterlimit="10"/>
<path d="M172.046 178.34H163.941V180.313H172.046V178.34Z" stroke="#FCE7F1" stroke-width="0.7418" stroke-miterlimit="10"/>
<path d="M180.151 178.34H172.046V180.313H180.151V178.34Z" stroke="#FCE7F1" stroke-width="0.7418" stroke-miterlimit="10"/>
<path d="M152.409 180.309H144.304V182.282H152.409V180.309Z" stroke="#FCE7F1" stroke-width="0.7418" stroke-miterlimit="10"/>
<path d="M160.514 180.309H152.409V182.282H160.514V180.309Z" stroke="#FCE7F1" stroke-width="0.7418" stroke-miterlimit="10"/>
<path d="M168.658 180.309H160.554V182.282H168.658V180.309Z" stroke="#FCE7F1" stroke-width="0.7418" stroke-miterlimit="10"/>
<path d="M176.763 180.309H168.658V182.282H176.763V180.309Z" stroke="#FCE7F1" stroke-width="0.7418" stroke-miterlimit="10"/>
<path d="M155.797 182.306H147.692V184.279H155.797V182.306Z" stroke="#FCE7F1" stroke-width="0.7418" stroke-miterlimit="10"/>
<path d="M163.901 182.306H155.797V184.279H163.901V182.306Z" stroke="#FCE7F1" stroke-width="0.7418" stroke-miterlimit="10"/>
<path d="M172.046 182.306H163.941V184.279H172.046V182.306Z" stroke="#FCE7F1" stroke-width="0.7418" stroke-miterlimit="10"/>
<path d="M180.151 182.306H172.046V184.279H180.151V182.306Z" stroke="#FCE7F1" stroke-width="0.7418" stroke-miterlimit="10"/>
<path d="M119.949 144.606H111.845V146.579H119.949V144.606Z" stroke="#FCE7F1" stroke-width="0.7418" stroke-miterlimit="10"/>
<path d="M128.054 144.606H119.95V146.579H128.054V144.606Z" stroke="#FCE7F1" stroke-width="0.7418" stroke-miterlimit="10"/>
<path d="M136.199 144.606H128.094V146.579H136.199V144.606Z" stroke="#FCE7F1" stroke-width="0.7418" stroke-miterlimit="10"/>
<path d="M144.304 144.606H136.199V146.579H144.304V144.606Z" stroke="#FCE7F1" stroke-width="0.7418" stroke-miterlimit="10"/>
<path d="M123.337 146.56H115.232V148.533H123.337V146.56Z" stroke="#FCE7F1" stroke-width="0.7418" stroke-miterlimit="10"/>
<path d="M131.442 146.56H123.337V148.533H131.442V146.56Z" stroke="#FCE7F1" stroke-width="0.7418" stroke-miterlimit="10"/>
<path d="M139.586 146.56H131.481V148.533H139.586V146.56Z" stroke="#FCE7F1" stroke-width="0.7418" stroke-miterlimit="10"/>
<path d="M147.691 146.56H139.586V148.533H147.691V146.56Z" stroke="#FCE7F1" stroke-width="0.7418" stroke-miterlimit="10"/>
<path d="M119.949 148.529H111.845V150.502H119.949V148.529Z" stroke="#FCE7F1" stroke-width="0.7418" stroke-miterlimit="10"/>
<path d="M128.054 148.529H119.95V150.502H128.054V148.529Z" stroke="#FCE7F1" stroke-width="0.7418" stroke-miterlimit="10"/>
<path d="M136.199 148.529H128.094V150.502H136.199V148.529Z" stroke="#FCE7F1" stroke-width="0.7418" stroke-miterlimit="10"/>
<path d="M144.304 148.529H136.199V150.502H144.304V148.529Z" stroke="#FCE7F1" stroke-width="0.7418" stroke-miterlimit="10"/>
<path d="M123.337 150.526H115.232V152.499H123.337V150.526Z" stroke="#FCE7F1" stroke-width="0.7418" stroke-miterlimit="10"/>
<path d="M131.442 150.526H123.337V152.499H131.442V150.526Z" stroke="#FCE7F1" stroke-width="0.7418" stroke-miterlimit="10"/>
<path d="M139.586 150.526H131.481V152.499H139.586V150.526Z" stroke="#FCE7F1" stroke-width="0.7418" stroke-miterlimit="10"/>
<path d="M147.691 150.526H139.586V152.499H147.691V150.526Z" stroke="#FCE7F1" stroke-width="0.7418" stroke-miterlimit="10"/>
<path d="M119.949 152.494H111.845V154.468H119.949V152.494Z" stroke="#FCE7F1" stroke-width="0.7418" stroke-miterlimit="10"/>
<path d="M128.054 152.494H119.95V154.468H128.054V152.494Z" stroke="#FCE7F1" stroke-width="0.7418" stroke-miterlimit="10"/>
<path d="M136.199 152.494H128.094V154.468H136.199V152.494Z" stroke="#FCE7F1" stroke-width="0.7418" stroke-miterlimit="10"/>
<path d="M144.304 152.494H136.199V154.468H144.304V152.494Z" stroke="#FCE7F1" stroke-width="0.7418" stroke-miterlimit="10"/>
<path d="M123.337 154.448H115.232V156.422H123.337V154.448Z" stroke="#FCE7F1" stroke-width="0.7418" stroke-miterlimit="10"/>
<path d="M131.442 154.448H123.337V156.422H131.442V154.448Z" stroke="#FCE7F1" stroke-width="0.7418" stroke-miterlimit="10"/>
<path d="M139.586 154.448H131.481V156.422H139.586V154.448Z" stroke="#FCE7F1" stroke-width="0.7418" stroke-miterlimit="10"/>
<path d="M147.691 154.448H139.586V156.422H147.691V154.448Z" stroke="#FCE7F1" stroke-width="0.7418" stroke-miterlimit="10"/>
<path d="M119.949 156.417H111.845V158.39H119.949V156.417Z" stroke="#FCE7F1" stroke-width="0.7418" stroke-miterlimit="10"/>
<path d="M128.054 156.417H119.95V158.39H128.054V156.417Z" stroke="#FCE7F1" stroke-width="0.7418" stroke-miterlimit="10"/>
<path d="M136.199 156.417H128.094V158.39H136.199V156.417Z" stroke="#FCE7F1" stroke-width="0.7418" stroke-miterlimit="10"/>
<path d="M144.304 156.417H136.199V158.39H144.304V156.417Z" stroke="#FCE7F1" stroke-width="0.7418" stroke-miterlimit="10"/>
<path d="M123.337 158.415H115.232V160.388H123.337V158.415Z" stroke="#FCE7F1" stroke-width="0.7418" stroke-miterlimit="10"/>
<path d="M131.442 158.415H123.337V160.388H131.442V158.415Z" stroke="#FCE7F1" stroke-width="0.7418" stroke-miterlimit="10"/>
<path d="M139.586 158.415H131.481V160.388H139.586V158.415Z" stroke="#FCE7F1" stroke-width="0.7418" stroke-miterlimit="10"/>
<path d="M147.691 158.415H139.586V160.388H147.691V158.415Z" stroke="#FCE7F1" stroke-width="0.7418" stroke-miterlimit="10"/>
<path d="M119.949 160.47H111.845V162.443H119.949V160.47Z" stroke="#FCE7F1" stroke-width="0.7418" stroke-miterlimit="10"/>
<path d="M128.054 160.47H119.95V162.443H128.054V160.47Z" stroke="#FCE7F1" stroke-width="0.7418" stroke-miterlimit="10"/>
<path d="M136.199 160.47H128.094V162.443H136.199V160.47Z" stroke="#FCE7F1" stroke-width="0.7418" stroke-miterlimit="10"/>
<path d="M144.304 160.47H136.199V162.443H144.304V160.47Z" stroke="#FCE7F1" stroke-width="0.7418" stroke-miterlimit="10"/>
<path d="M123.337 162.424H115.232V164.397H123.337V162.424Z" stroke="#FCE7F1" stroke-width="0.7418" stroke-miterlimit="10"/>
<path d="M131.442 162.424H123.337V164.397H131.442V162.424Z" stroke="#FCE7F1" stroke-width="0.7418" stroke-miterlimit="10"/>
<path d="M139.586 162.424H131.481V164.397H139.586V162.424Z" stroke="#FCE7F1" stroke-width="0.7418" stroke-miterlimit="10"/>
<path d="M147.691 162.424H139.586V164.397H147.691V162.424Z" stroke="#FCE7F1" stroke-width="0.7418" stroke-miterlimit="10"/>
<path d="M119.949 164.393H111.845V166.366H119.949V164.393Z" stroke="#FCE7F1" stroke-width="0.7418" stroke-miterlimit="10"/>
<path d="M128.054 164.393H119.95V166.366H128.054V164.393Z" stroke="#FCE7F1" stroke-width="0.7418" stroke-miterlimit="10"/>
<path d="M136.199 164.393H128.094V166.366H136.199V164.393Z" stroke="#FCE7F1" stroke-width="0.7418" stroke-miterlimit="10"/>
<path d="M144.304 164.393H136.199V166.366H144.304V164.393Z" stroke="#FCE7F1" stroke-width="0.7418" stroke-miterlimit="10"/>
<path d="M123.337 166.39H115.232V168.363H123.337V166.39Z" stroke="#FCE7F1" stroke-width="0.7418" stroke-miterlimit="10"/>
<path d="M131.442 166.39H123.337V168.363H131.442V166.39Z" stroke="#FCE7F1" stroke-width="0.7418" stroke-miterlimit="10"/>
<path d="M139.586 166.39H131.481V168.363H139.586V166.39Z" stroke="#FCE7F1" stroke-width="0.7418" stroke-miterlimit="10"/>
<path d="M147.691 166.39H139.586V168.363H147.691V166.39Z" stroke="#FCE7F1" stroke-width="0.7418" stroke-miterlimit="10"/>
<path d="M119.949 168.41H111.845V170.384H119.949V168.41Z" stroke="#FCE7F1" stroke-width="0.7418" stroke-miterlimit="10"/>
<path d="M128.054 168.41H119.95V170.384H128.054V168.41Z" stroke="#FCE7F1" stroke-width="0.7418" stroke-miterlimit="10"/>
<path d="M136.199 168.41H128.094V170.384H136.199V168.41Z" stroke="#FCE7F1" stroke-width="0.7418" stroke-miterlimit="10"/>
<path d="M144.304 168.41H136.199V170.384H144.304V168.41Z" stroke="#FCE7F1" stroke-width="0.7418" stroke-miterlimit="10"/>
<path d="M123.337 170.365H115.232V172.338H123.337V170.365Z" stroke="#FCE7F1" stroke-width="0.7418" stroke-miterlimit="10"/>
<path d="M131.442 170.365H123.337V172.338H131.442V170.365Z" stroke="#FCE7F1" stroke-width="0.7418" stroke-miterlimit="10"/>
<path d="M139.586 170.365H131.481V172.338H139.586V170.365Z" stroke="#FCE7F1" stroke-width="0.7418" stroke-miterlimit="10"/>
<path d="M147.691 170.365H139.586V172.338H147.691V170.365Z" stroke="#FCE7F1" stroke-width="0.7418" stroke-miterlimit="10"/>
<path d="M119.949 172.333H111.845V174.306H119.949V172.333Z" stroke="#FCE7F1" stroke-width="0.7418" stroke-miterlimit="10"/>
<path d="M128.054 172.333H119.95V174.306H128.054V172.333Z" stroke="#FCE7F1" stroke-width="0.7418" stroke-miterlimit="10"/>
<path d="M136.199 172.333H128.094V174.306H136.199V172.333Z" stroke="#FCE7F1" stroke-width="0.7418" stroke-miterlimit="10"/>
<path d="M144.304 172.333H136.199V174.306H144.304V172.333Z" stroke="#FCE7F1" stroke-width="0.7418" stroke-miterlimit="10"/>
<path d="M123.337 174.33H115.232V176.304H123.337V174.33Z" stroke="#FCE7F1" stroke-width="0.7418" stroke-miterlimit="10"/>
<path d="M131.442 174.33H123.337V176.304H131.442V174.33Z" stroke="#FCE7F1" stroke-width="0.7418" stroke-miterlimit="10"/>
<path d="M139.586 174.33H131.481V176.304H139.586V174.33Z" stroke="#FCE7F1" stroke-width="0.7418" stroke-miterlimit="10"/>
<path d="M147.691 174.33H139.586V176.304H147.691V174.33Z" stroke="#FCE7F1" stroke-width="0.7418" stroke-miterlimit="10"/>
<path d="M119.949 176.386H111.845V178.359H119.949V176.386Z" stroke="#FCE7F1" stroke-width="0.7418" stroke-miterlimit="10"/>
<path d="M128.054 176.386H119.95V178.359H128.054V176.386Z" stroke="#FCE7F1" stroke-width="0.7418" stroke-miterlimit="10"/>
<path d="M136.199 176.386H128.094V178.359H136.199V176.386Z" stroke="#FCE7F1" stroke-width="0.7418" stroke-miterlimit="10"/>
<path d="M144.304 176.386H136.199V178.359H144.304V176.386Z" stroke="#FCE7F1" stroke-width="0.7418" stroke-miterlimit="10"/>
<path d="M123.337 178.34H115.232V180.313H123.337V178.34Z" stroke="#FCE7F1" stroke-width="0.7418" stroke-miterlimit="10"/>
<path d="M131.442 178.34H123.337V180.313H131.442V178.34Z" stroke="#FCE7F1" stroke-width="0.7418" stroke-miterlimit="10"/>
<path d="M139.586 178.34H131.481V180.313H139.586V178.34Z" stroke="#FCE7F1" stroke-width="0.7418" stroke-miterlimit="10"/>
<path d="M147.691 178.34H139.586V180.313H147.691V178.34Z" stroke="#FCE7F1" stroke-width="0.7418" stroke-miterlimit="10"/>
<path d="M119.949 180.309H111.845V182.282H119.949V180.309Z" stroke="#FCE7F1" stroke-width="0.7418" stroke-miterlimit="10"/>
<path d="M128.054 180.309H119.95V182.282H128.054V180.309Z" stroke="#FCE7F1" stroke-width="0.7418" stroke-miterlimit="10"/>
<path d="M136.199 180.309H128.094V182.282H136.199V180.309Z" stroke="#FCE7F1" stroke-width="0.7418" stroke-miterlimit="10"/>
<path d="M144.304 180.309H136.199V182.282H144.304V180.309Z" stroke="#FCE7F1" stroke-width="0.7418" stroke-miterlimit="10"/>
<path d="M123.337 182.306H115.232V184.279H123.337V182.306Z" stroke="#FCE7F1" stroke-width="0.7418" stroke-miterlimit="10"/>
<path d="M131.442 182.306H123.337V184.279H131.442V182.306Z" stroke="#FCE7F1" stroke-width="0.7418" stroke-miterlimit="10"/>
<path d="M139.586 182.306H131.481V184.279H139.586V182.306Z" stroke="#FCE7F1" stroke-width="0.7418" stroke-miterlimit="10"/>
<path d="M147.691 182.306H139.586V184.279H147.691V182.306Z" stroke="#FCE7F1" stroke-width="0.7418" stroke-miterlimit="10"/>
<path d="M103.764 144.606H95.6597V146.579H103.764V144.606Z" stroke="#FCE7F1" stroke-width="0.7418" stroke-miterlimit="10"/>
<path d="M111.869 144.606H103.764V146.579H111.869V144.606Z" stroke="#FCE7F1" stroke-width="0.7418" stroke-miterlimit="10"/>
<path d="M107.152 146.56H99.0472V148.533H107.152V146.56Z" stroke="#FCE7F1" stroke-width="0.7418" stroke-miterlimit="10"/>
<path d="M115.257 146.56H107.152V148.533H115.257V146.56Z" stroke="#FCE7F1" stroke-width="0.7418" stroke-miterlimit="10"/>
<path d="M103.764 148.529H95.6597V150.502H103.764V148.529Z" stroke="#FCE7F1" stroke-width="0.7418" stroke-miterlimit="10"/>
<path d="M111.869 148.529H103.764V150.502H111.869V148.529Z" stroke="#FCE7F1" stroke-width="0.7418" stroke-miterlimit="10"/>
<path d="M107.152 150.526H99.0472V152.499H107.152V150.526Z" stroke="#FCE7F1" stroke-width="0.7418" stroke-miterlimit="10"/>
<path d="M115.257 150.526H107.152V152.499H115.257V150.526Z" stroke="#FCE7F1" stroke-width="0.7418" stroke-miterlimit="10"/>
<path d="M103.764 152.494H95.6597V154.468H103.764V152.494Z" stroke="#FCE7F1" stroke-width="0.7418" stroke-miterlimit="10"/>
<path d="M111.869 152.494H103.764V154.468H111.869V152.494Z" stroke="#FCE7F1" stroke-width="0.7418" stroke-miterlimit="10"/>
<path d="M107.152 154.448H99.0472V156.422H107.152V154.448Z" stroke="#FCE7F1" stroke-width="0.7418" stroke-miterlimit="10"/>
<path d="M115.257 154.448H107.152V156.422H115.257V154.448Z" stroke="#FCE7F1" stroke-width="0.7418" stroke-miterlimit="10"/>
<path d="M103.764 156.417H95.6597V158.39H103.764V156.417Z" stroke="#FCE7F1" stroke-width="0.7418" stroke-miterlimit="10"/>
<path d="M111.869 156.417H103.764V158.39H111.869V156.417Z" stroke="#FCE7F1" stroke-width="0.7418" stroke-miterlimit="10"/>
<path d="M107.152 158.415H99.0472V160.388H107.152V158.415Z" stroke="#FCE7F1" stroke-width="0.7418" stroke-miterlimit="10"/>
<path d="M115.257 158.415H107.152V160.388H115.257V158.415Z" stroke="#FCE7F1" stroke-width="0.7418" stroke-miterlimit="10"/>
<path d="M103.764 160.47H95.6597V162.443H103.764V160.47Z" stroke="#FCE7F1" stroke-width="0.7418" stroke-miterlimit="10"/>
<path d="M111.869 160.47H103.764V162.443H111.869V160.47Z" stroke="#FCE7F1" stroke-width="0.7418" stroke-miterlimit="10"/>
<path d="M107.152 162.424H99.0472V164.397H107.152V162.424Z" stroke="#FCE7F1" stroke-width="0.7418" stroke-miterlimit="10"/>
<path d="M115.257 162.424H107.152V164.397H115.257V162.424Z" stroke="#FCE7F1" stroke-width="0.7418" stroke-miterlimit="10"/>
<path d="M103.764 164.393H95.6597V166.366H103.764V164.393Z" stroke="#FCE7F1" stroke-width="0.7418" stroke-miterlimit="10"/>
<path d="M111.869 164.393H103.764V166.366H111.869V164.393Z" stroke="#FCE7F1" stroke-width="0.7418" stroke-miterlimit="10"/>
<path d="M107.152 166.39H99.0472V168.363H107.152V166.39Z" stroke="#FCE7F1" stroke-width="0.7418" stroke-miterlimit="10"/>
<path d="M115.257 166.39H107.152V168.363H115.257V166.39Z" stroke="#FCE7F1" stroke-width="0.7418" stroke-miterlimit="10"/>
<path d="M103.764 168.41H95.6597V170.384H103.764V168.41Z" stroke="#FCE7F1" stroke-width="0.7418" stroke-miterlimit="10"/>
<path d="M111.869 168.41H103.764V170.384H111.869V168.41Z" stroke="#FCE7F1" stroke-width="0.7418" stroke-miterlimit="10"/>
<path d="M107.152 170.365H99.0472V172.338H107.152V170.365Z" stroke="#FCE7F1" stroke-width="0.7418" stroke-miterlimit="10"/>
<path d="M115.257 170.365H107.152V172.338H115.257V170.365Z" stroke="#FCE7F1" stroke-width="0.7418" stroke-miterlimit="10"/>
<path d="M103.764 172.333H95.6597V174.306H103.764V172.333Z" stroke="#FCE7F1" stroke-width="0.7418" stroke-miterlimit="10"/>
<path d="M111.869 172.333H103.764V174.306H111.869V172.333Z" stroke="#FCE7F1" stroke-width="0.7418" stroke-miterlimit="10"/>
<path d="M107.152 174.33H99.0472V176.304H107.152V174.33Z" stroke="#FCE7F1" stroke-width="0.7418" stroke-miterlimit="10"/>
<path d="M115.257 174.33H107.152V176.304H115.257V174.33Z" stroke="#FCE7F1" stroke-width="0.7418" stroke-miterlimit="10"/>
<path d="M103.764 176.386H95.6597V178.359H103.764V176.386Z" stroke="#FCE7F1" stroke-width="0.7418" stroke-miterlimit="10"/>
<path d="M111.869 176.386H103.764V178.359H111.869V176.386Z" stroke="#FCE7F1" stroke-width="0.7418" stroke-miterlimit="10"/>
<path d="M107.152 178.34H99.0472V180.313H107.152V178.34Z" stroke="#FCE7F1" stroke-width="0.7418" stroke-miterlimit="10"/>
<path d="M115.257 178.34H107.152V180.313H115.257V178.34Z" stroke="#FCE7F1" stroke-width="0.7418" stroke-miterlimit="10"/>
<path d="M103.764 180.309H95.6597V182.282H103.764V180.309Z" stroke="#FCE7F1" stroke-width="0.7418" stroke-miterlimit="10"/>
<path d="M111.869 180.309H103.764V182.282H111.869V180.309Z" stroke="#FCE7F1" stroke-width="0.7418" stroke-miterlimit="10"/>
<path d="M107.152 182.306H99.0472V184.279H107.152V182.306Z" stroke="#FCE7F1" stroke-width="0.7418" stroke-miterlimit="10"/>
<path d="M115.257 182.306H107.152V184.279H115.257V182.306Z" stroke="#FCE7F1" stroke-width="0.7418" stroke-miterlimit="10"/>
<path d="M152.409 184.275H144.304V186.248H152.409V184.275Z" stroke="#FCE7F1" stroke-width="0.7418" stroke-miterlimit="10"/>
<path d="M160.514 184.275H152.409V186.248H160.514V184.275Z" stroke="#FCE7F1" stroke-width="0.7418" stroke-miterlimit="10"/>
<path d="M168.658 184.275H160.554V186.248H168.658V184.275Z" stroke="#FCE7F1" stroke-width="0.7418" stroke-miterlimit="10"/>
<path d="M176.763 184.275H168.658V186.248H176.763V184.275Z" stroke="#FCE7F1" stroke-width="0.7418" stroke-miterlimit="10"/>
<path d="M155.797 186.229H147.692V188.202H155.797V186.229Z" stroke="#FCE7F1" stroke-width="0.7418" stroke-miterlimit="10"/>
<path d="M163.901 186.229H155.797V188.202H163.901V186.229Z" stroke="#FCE7F1" stroke-width="0.7418" stroke-miterlimit="10"/>
<path d="M172.046 186.229H163.941V188.202H172.046V186.229Z" stroke="#FCE7F1" stroke-width="0.7418" stroke-miterlimit="10"/>
<path d="M180.151 186.229H172.046V188.202H180.151V186.229Z" stroke="#FCE7F1" stroke-width="0.7418" stroke-miterlimit="10"/>
<path d="M152.409 188.198H144.304V190.171H152.409V188.198Z" stroke="#FCE7F1" stroke-width="0.7418" stroke-miterlimit="10"/>
<path d="M160.514 188.198H152.409V190.171H160.514V188.198Z" stroke="#FCE7F1" stroke-width="0.7418" stroke-miterlimit="10"/>
<path d="M168.658 188.198H160.554V190.171H168.658V188.198Z" stroke="#FCE7F1" stroke-width="0.7418" stroke-miterlimit="10"/>
<path d="M176.763 188.198H168.658V190.171H176.763V188.198Z" stroke="#FCE7F1" stroke-width="0.7418" stroke-miterlimit="10"/>
<path d="M155.797 190.195H147.692V192.168H155.797V190.195Z" stroke="#FCE7F1" stroke-width="0.7418" stroke-miterlimit="10"/>
<path d="M163.901 190.195H155.797V192.168H163.901V190.195Z" stroke="#FCE7F1" stroke-width="0.7418" stroke-miterlimit="10"/>
<path d="M172.046 190.195H163.941V192.168H172.046V190.195Z" stroke="#FCE7F1" stroke-width="0.7418" stroke-miterlimit="10"/>
<path d="M180.151 190.195H172.046V192.168H180.151V190.195Z" stroke="#FCE7F1" stroke-width="0.7418" stroke-miterlimit="10"/>
<path d="M152.409 192.25H144.304V194.223H152.409V192.25Z" stroke="#FCE7F1" stroke-width="0.7418" stroke-miterlimit="10"/>
<path d="M160.514 192.25H152.409V194.223H160.514V192.25Z" stroke="#FCE7F1" stroke-width="0.7418" stroke-miterlimit="10"/>
<path d="M168.658 192.25H160.554V194.223H168.658V192.25Z" stroke="#FCE7F1" stroke-width="0.7418" stroke-miterlimit="10"/>
<path d="M176.763 192.25H168.658V194.223H176.763V192.25Z" stroke="#FCE7F1" stroke-width="0.7418" stroke-miterlimit="10"/>
<path d="M155.797 194.204H147.692V196.177H155.797V194.204Z" stroke="#FCE7F1" stroke-width="0.7418" stroke-miterlimit="10"/>
<path d="M163.901 194.204H155.797V196.177H163.901V194.204Z" stroke="#FCE7F1" stroke-width="0.7418" stroke-miterlimit="10"/>
<path d="M172.046 194.204H163.941V196.177H172.046V194.204Z" stroke="#FCE7F1" stroke-width="0.7418" stroke-miterlimit="10"/>
<path d="M180.151 194.204H172.046V196.177H180.151V194.204Z" stroke="#FCE7F1" stroke-width="0.7418" stroke-miterlimit="10"/>
<path d="M152.409 196.173H144.304V198.146H152.409V196.173Z" stroke="#FCE7F1" stroke-width="0.7418" stroke-miterlimit="10"/>
<path d="M160.514 196.173H152.409V198.146H160.514V196.173Z" stroke="#FCE7F1" stroke-width="0.7418" stroke-miterlimit="10"/>
<path d="M168.658 196.173H160.554V198.146H168.658V196.173Z" stroke="#FCE7F1" stroke-width="0.7418" stroke-miterlimit="10"/>
<path d="M176.763 196.173H168.658V198.146H176.763V196.173Z" stroke="#FCE7F1" stroke-width="0.7418" stroke-miterlimit="10"/>
<path d="M155.797 198.17H147.692V200.143H155.797V198.17Z" stroke="#FCE7F1" stroke-width="0.7418" stroke-miterlimit="10"/>
<path d="M163.901 198.17H155.797V200.143H163.901V198.17Z" stroke="#FCE7F1" stroke-width="0.7418" stroke-miterlimit="10"/>
<path d="M172.046 198.17H163.941V200.143H172.046V198.17Z" stroke="#FCE7F1" stroke-width="0.7418" stroke-miterlimit="10"/>
<path d="M180.151 198.17H172.046V200.143H180.151V198.17Z" stroke="#FCE7F1" stroke-width="0.7418" stroke-miterlimit="10"/>
<path d="M152.409 200.19H144.304V202.163H152.409V200.19Z" stroke="#FCE7F1" stroke-width="0.7418" stroke-miterlimit="10"/>
<path d="M160.514 200.19H152.409V202.163H160.514V200.19Z" stroke="#FCE7F1" stroke-width="0.7418" stroke-miterlimit="10"/>
<path d="M168.658 200.19H160.554V202.163H168.658V200.19Z" stroke="#FCE7F1" stroke-width="0.7418" stroke-miterlimit="10"/>
<path d="M176.763 200.19H168.658V202.163H176.763V200.19Z" stroke="#FCE7F1" stroke-width="0.7418" stroke-miterlimit="10"/>
<path d="M155.797 202.144H147.692V204.117H155.797V202.144Z" stroke="#FCE7F1" stroke-width="0.7418" stroke-miterlimit="10"/>
<path d="M163.901 202.144H155.797V204.117H163.901V202.144Z" stroke="#FCE7F1" stroke-width="0.7418" stroke-miterlimit="10"/>
<path d="M172.046 202.144H163.941V204.117H172.046V202.144Z" stroke="#FCE7F1" stroke-width="0.7418" stroke-miterlimit="10"/>
<path d="M180.151 202.144H172.046V204.117H180.151V202.144Z" stroke="#FCE7F1" stroke-width="0.7418" stroke-miterlimit="10"/>
<path d="M152.409 204.113H144.304V206.086H152.409V204.113Z" stroke="#FCE7F1" stroke-width="0.7418" stroke-miterlimit="10"/>
<path d="M160.514 204.113H152.409V206.086H160.514V204.113Z" stroke="#FCE7F1" stroke-width="0.7418" stroke-miterlimit="10"/>
<path d="M168.658 204.113H160.554V206.086H168.658V204.113Z" stroke="#FCE7F1" stroke-width="0.7418" stroke-miterlimit="10"/>
<path d="M176.763 204.113H168.658V206.086H176.763V204.113Z" stroke="#FCE7F1" stroke-width="0.7418" stroke-miterlimit="10"/>
<path d="M155.797 206.11H147.692V208.084H155.797V206.11Z" stroke="#FCE7F1" stroke-width="0.7418" stroke-miterlimit="10"/>
<path d="M163.901 206.11H155.797V208.084H163.901V206.11Z" stroke="#FCE7F1" stroke-width="0.7418" stroke-miterlimit="10"/>
<path d="M172.046 206.11H163.941V208.084H172.046V206.11Z" stroke="#FCE7F1" stroke-width="0.7418" stroke-miterlimit="10"/>
<path d="M180.151 206.11H172.046V208.084H180.151V206.11Z" stroke="#FCE7F1" stroke-width="0.7418" stroke-miterlimit="10"/>
<path d="M152.409 208.166H144.304V210.139H152.409V208.166Z" stroke="#FCE7F1" stroke-width="0.7418" stroke-miterlimit="10"/>
<path d="M160.514 208.166H152.409V210.139H160.514V208.166Z" stroke="#FCE7F1" stroke-width="0.7418" stroke-miterlimit="10"/>
<path d="M168.658 208.166H160.554V210.139H168.658V208.166Z" stroke="#FCE7F1" stroke-width="0.7418" stroke-miterlimit="10"/>
<path d="M176.763 208.166H168.658V210.139H176.763V208.166Z" stroke="#FCE7F1" stroke-width="0.7418" stroke-miterlimit="10"/>
<path d="M155.797 210.12H147.692V212.093H155.797V210.12Z" stroke="#FCE7F1" stroke-width="0.7418" stroke-miterlimit="10"/>
<path d="M163.901 210.12H155.797V212.093H163.901V210.12Z" stroke="#FCE7F1" stroke-width="0.7418" stroke-miterlimit="10"/>
<path d="M172.046 210.12H163.941V212.093H172.046V210.12Z" stroke="#FCE7F1" stroke-width="0.7418" stroke-miterlimit="10"/>
<path d="M180.151 210.12H172.046V212.093H180.151V210.12Z" stroke="#FCE7F1" stroke-width="0.7418" stroke-miterlimit="10"/>
<path d="M152.409 212.088H144.304V214.062H152.409V212.088Z" stroke="#FCE7F1" stroke-width="0.7418" stroke-miterlimit="10"/>
<path d="M160.514 212.088H152.409V214.062H160.514V212.088Z" stroke="#FCE7F1" stroke-width="0.7418" stroke-miterlimit="10"/>
<path d="M168.658 212.088H160.554V214.062H168.658V212.088Z" stroke="#FCE7F1" stroke-width="0.7418" stroke-miterlimit="10"/>
<path d="M176.763 212.088H168.658V214.062H176.763V212.088Z" stroke="#FCE7F1" stroke-width="0.7418" stroke-miterlimit="10"/>
<path d="M155.797 214.086H147.692V216.059H155.797V214.086Z" stroke="#FCE7F1" stroke-width="0.7418" stroke-miterlimit="10"/>
<path d="M163.901 214.086H155.797V216.059H163.901V214.086Z" stroke="#FCE7F1" stroke-width="0.7418" stroke-miterlimit="10"/>
<path d="M172.046 214.086H163.941V216.059H172.046V214.086Z" stroke="#FCE7F1" stroke-width="0.7418" stroke-miterlimit="10"/>
<path d="M180.151 214.086H172.046V216.059H180.151V214.086Z" stroke="#FCE7F1" stroke-width="0.7418" stroke-miterlimit="10"/>
<path d="M119.832 184.275H111.728V186.248H119.832V184.275Z" stroke="#FCE7F1" stroke-width="0.7418" stroke-miterlimit="10"/>
<path d="M127.937 184.275H119.833V186.248H127.937V184.275Z" stroke="#FCE7F1" stroke-width="0.7418" stroke-miterlimit="10"/>
<path d="M136.082 184.275H127.977V186.248H136.082V184.275Z" stroke="#FCE7F1" stroke-width="0.7418" stroke-miterlimit="10"/>
<path d="M144.187 184.275H136.082V186.248H144.187V184.275Z" stroke="#FCE7F1" stroke-width="0.7418" stroke-miterlimit="10"/>
<path d="M123.22 186.229H115.115V188.202H123.22V186.229Z" stroke="#FCE7F1" stroke-width="0.7418" stroke-miterlimit="10"/>
<path d="M131.325 186.229H123.22V188.202H131.325V186.229Z" stroke="#FCE7F1" stroke-width="0.7418" stroke-miterlimit="10"/>
<path d="M139.469 186.229H131.364V188.202H139.469V186.229Z" stroke="#FCE7F1" stroke-width="0.7418" stroke-miterlimit="10"/>
<path d="M147.574 186.229H139.469V188.202H147.574V186.229Z" stroke="#FCE7F1" stroke-width="0.7418" stroke-miterlimit="10"/>
<path d="M119.832 188.198H111.728V190.171H119.832V188.198Z" stroke="#FCE7F1" stroke-width="0.7418" stroke-miterlimit="10"/>
<path d="M127.937 188.198H119.833V190.171H127.937V188.198Z" stroke="#FCE7F1" stroke-width="0.7418" stroke-miterlimit="10"/>
<path d="M136.082 188.198H127.977V190.171H136.082V188.198Z" stroke="#FCE7F1" stroke-width="0.7418" stroke-miterlimit="10"/>
<path d="M144.187 188.198H136.082V190.171H144.187V188.198Z" stroke="#FCE7F1" stroke-width="0.7418" stroke-miterlimit="10"/>
<path d="M123.22 190.195H115.115V192.168H123.22V190.195Z" stroke="#FCE7F1" stroke-width="0.7418" stroke-miterlimit="10"/>
<path d="M131.325 190.195H123.22V192.168H131.325V190.195Z" stroke="#FCE7F1" stroke-width="0.7418" stroke-miterlimit="10"/>
<path d="M139.469 190.195H131.364V192.168H139.469V190.195Z" stroke="#FCE7F1" stroke-width="0.7418" stroke-miterlimit="10"/>
<path d="M147.574 190.195H139.469V192.168H147.574V190.195Z" stroke="#FCE7F1" stroke-width="0.7418" stroke-miterlimit="10"/>
<path d="M119.832 192.25H111.728V194.223H119.832V192.25Z" stroke="#FCE7F1" stroke-width="0.7418" stroke-miterlimit="10"/>
<path d="M127.937 192.25H119.833V194.223H127.937V192.25Z" stroke="#FCE7F1" stroke-width="0.7418" stroke-miterlimit="10"/>
<path d="M136.082 192.25H127.977V194.223H136.082V192.25Z" stroke="#FCE7F1" stroke-width="0.7418" stroke-miterlimit="10"/>
<path d="M144.187 192.25H136.082V194.223H144.187V192.25Z" stroke="#FCE7F1" stroke-width="0.7418" stroke-miterlimit="10"/>
<path d="M123.22 194.204H115.115V196.177H123.22V194.204Z" stroke="#FCE7F1" stroke-width="0.7418" stroke-miterlimit="10"/>
<path d="M131.325 194.204H123.22V196.177H131.325V194.204Z" stroke="#FCE7F1" stroke-width="0.7418" stroke-miterlimit="10"/>
<path d="M139.469 194.204H131.364V196.177H139.469V194.204Z" stroke="#FCE7F1" stroke-width="0.7418" stroke-miterlimit="10"/>
<path d="M147.574 194.204H139.469V196.177H147.574V194.204Z" stroke="#FCE7F1" stroke-width="0.7418" stroke-miterlimit="10"/>
<path d="M119.832 196.173H111.728V198.146H119.832V196.173Z" stroke="#FCE7F1" stroke-width="0.7418" stroke-miterlimit="10"/>
<path d="M127.937 196.173H119.833V198.146H127.937V196.173Z" stroke="#FCE7F1" stroke-width="0.7418" stroke-miterlimit="10"/>
<path d="M136.082 196.173H127.977V198.146H136.082V196.173Z" stroke="#FCE7F1" stroke-width="0.7418" stroke-miterlimit="10"/>
<path d="M144.187 196.173H136.082V198.146H144.187V196.173Z" stroke="#FCE7F1" stroke-width="0.7418" stroke-miterlimit="10"/>
<path d="M123.22 198.17H115.115V200.143H123.22V198.17Z" stroke="#FCE7F1" stroke-width="0.7418" stroke-miterlimit="10"/>
<path d="M131.325 198.17H123.22V200.143H131.325V198.17Z" stroke="#FCE7F1" stroke-width="0.7418" stroke-miterlimit="10"/>
<path d="M139.469 198.17H131.364V200.143H139.469V198.17Z" stroke="#FCE7F1" stroke-width="0.7418" stroke-miterlimit="10"/>
<path d="M147.574 198.17H139.469V200.143H147.574V198.17Z" stroke="#FCE7F1" stroke-width="0.7418" stroke-miterlimit="10"/>
<path d="M119.832 200.19H111.728V202.163H119.832V200.19Z" stroke="#FCE7F1" stroke-width="0.7418" stroke-miterlimit="10"/>
<path d="M127.937 200.19H119.833V202.163H127.937V200.19Z" stroke="#FCE7F1" stroke-width="0.7418" stroke-miterlimit="10"/>
<path d="M136.082 200.19H127.977V202.163H136.082V200.19Z" stroke="#FCE7F1" stroke-width="0.7418" stroke-miterlimit="10"/>
<path d="M144.187 200.19H136.082V202.163H144.187V200.19Z" stroke="#FCE7F1" stroke-width="0.7418" stroke-miterlimit="10"/>
<path d="M123.22 202.144H115.115V204.117H123.22V202.144Z" stroke="#FCE7F1" stroke-width="0.7418" stroke-miterlimit="10"/>
<path d="M131.325 202.144H123.22V204.117H131.325V202.144Z" stroke="#FCE7F1" stroke-width="0.7418" stroke-miterlimit="10"/>
<path d="M139.469 202.144H131.364V204.117H139.469V202.144Z" stroke="#FCE7F1" stroke-width="0.7418" stroke-miterlimit="10"/>
<path d="M147.574 202.144H139.469V204.117H147.574V202.144Z" stroke="#FCE7F1" stroke-width="0.7418" stroke-miterlimit="10"/>
<path d="M119.832 204.113H111.728V206.086H119.832V204.113Z" stroke="#FCE7F1" stroke-width="0.7418" stroke-miterlimit="10"/>
<path d="M127.937 204.113H119.833V206.086H127.937V204.113Z" stroke="#FCE7F1" stroke-width="0.7418" stroke-miterlimit="10"/>
<path d="M136.082 204.113H127.977V206.086H136.082V204.113Z" stroke="#FCE7F1" stroke-width="0.7418" stroke-miterlimit="10"/>
<path d="M144.187 204.113H136.082V206.086H144.187V204.113Z" stroke="#FCE7F1" stroke-width="0.7418" stroke-miterlimit="10"/>
<path d="M123.22 206.11H115.115V208.084H123.22V206.11Z" stroke="#FCE7F1" stroke-width="0.7418" stroke-miterlimit="10"/>
<path d="M131.325 206.11H123.22V208.084H131.325V206.11Z" stroke="#FCE7F1" stroke-width="0.7418" stroke-miterlimit="10"/>
<path d="M139.469 206.11H131.364V208.084H139.469V206.11Z" stroke="#FCE7F1" stroke-width="0.7418" stroke-miterlimit="10"/>
<path d="M147.574 206.11H139.469V208.084H147.574V206.11Z" stroke="#FCE7F1" stroke-width="0.7418" stroke-miterlimit="10"/>
<path d="M119.832 208.166H111.728V210.139H119.832V208.166Z" stroke="#FCE7F1" stroke-width="0.7418" stroke-miterlimit="10"/>
<path d="M127.937 208.166H119.833V210.139H127.937V208.166Z" stroke="#FCE7F1" stroke-width="0.7418" stroke-miterlimit="10"/>
<path d="M136.082 208.166H127.977V210.139H136.082V208.166Z" stroke="#FCE7F1" stroke-width="0.7418" stroke-miterlimit="10"/>
<path d="M144.187 208.166H136.082V210.139H144.187V208.166Z" stroke="#FCE7F1" stroke-width="0.7418" stroke-miterlimit="10"/>
<path d="M123.22 210.12H115.115V212.093H123.22V210.12Z" stroke="#FCE7F1" stroke-width="0.7418" stroke-miterlimit="10"/>
<path d="M131.325 210.12H123.22V212.093H131.325V210.12Z" stroke="#FCE7F1" stroke-width="0.7418" stroke-miterlimit="10"/>
<path d="M139.469 210.12H131.364V212.093H139.469V210.12Z" stroke="#FCE7F1" stroke-width="0.7418" stroke-miterlimit="10"/>
<path d="M147.574 210.12H139.469V212.093H147.574V210.12Z" stroke="#FCE7F1" stroke-width="0.7418" stroke-miterlimit="10"/>
<path d="M119.832 212.088H111.728V214.062H119.832V212.088Z" stroke="#FCE7F1" stroke-width="0.7418" stroke-miterlimit="10"/>
<path d="M127.937 212.088H119.833V214.062H127.937V212.088Z" stroke="#FCE7F1" stroke-width="0.7418" stroke-miterlimit="10"/>
<path d="M136.082 212.088H127.977V214.062H136.082V212.088Z" stroke="#FCE7F1" stroke-width="0.7418" stroke-miterlimit="10"/>
<path d="M144.187 212.088H136.082V214.062H144.187V212.088Z" stroke="#FCE7F1" stroke-width="0.7418" stroke-miterlimit="10"/>
<path d="M123.22 214.086H115.115V216.059H123.22V214.086Z" stroke="#FCE7F1" stroke-width="0.7418" stroke-miterlimit="10"/>
<path d="M131.325 214.086H123.22V216.059H131.325V214.086Z" stroke="#FCE7F1" stroke-width="0.7418" stroke-miterlimit="10"/>
<path d="M139.469 214.086H131.364V216.059H139.469V214.086Z" stroke="#FCE7F1" stroke-width="0.7418" stroke-miterlimit="10"/>
<path d="M147.574 214.086H139.469V216.059H147.574V214.086Z" stroke="#FCE7F1" stroke-width="0.7418" stroke-miterlimit="10"/>
<path d="M111.785 184.275H103.68V186.248H111.785V184.275Z" stroke="#FCE7F1" stroke-width="0.7418" stroke-miterlimit="10"/>
<path d="M107.067 186.229H98.9627V188.202H107.067V186.229Z" stroke="#FCE7F1" stroke-width="0.7418" stroke-miterlimit="10"/>
<path d="M115.172 186.229H107.068V188.202H115.172V186.229Z" stroke="#FCE7F1" stroke-width="0.7418" stroke-miterlimit="10"/>
<path d="M111.785 188.198H103.68V190.171H111.785V188.198Z" stroke="#FCE7F1" stroke-width="0.7418" stroke-miterlimit="10"/>
<path d="M107.067 190.195H98.9627V192.168H107.067V190.195Z" stroke="#FCE7F1" stroke-width="0.7418" stroke-miterlimit="10"/>
<path d="M115.172 190.195H107.068V192.168H115.172V190.195Z" stroke="#FCE7F1" stroke-width="0.7418" stroke-miterlimit="10"/>
<path d="M111.785 192.25H103.68V194.223H111.785V192.25Z" stroke="#FCE7F1" stroke-width="0.7418" stroke-miterlimit="10"/>
<path d="M107.067 194.204H98.9627V196.177H107.067V194.204Z" stroke="#FCE7F1" stroke-width="0.7418" stroke-miterlimit="10"/>
<path d="M115.172 194.204H107.068V196.177H115.172V194.204Z" stroke="#FCE7F1" stroke-width="0.7418" stroke-miterlimit="10"/>
<path d="M111.785 196.173H103.68V198.146H111.785V196.173Z" stroke="#FCE7F1" stroke-width="0.7418" stroke-miterlimit="10"/>
<path d="M107.067 198.17H98.9627V200.143H107.067V198.17Z" stroke="#FCE7F1" stroke-width="0.7418" stroke-miterlimit="10"/>
<path d="M115.172 198.17H107.068V200.143H115.172V198.17Z" stroke="#FCE7F1" stroke-width="0.7418" stroke-miterlimit="10"/>
<path d="M111.785 200.19H103.68V202.163H111.785V200.19Z" stroke="#FCE7F1" stroke-width="0.7418" stroke-miterlimit="10"/>
<path d="M107.067 202.144H98.9627V204.117H107.067V202.144Z" stroke="#FCE7F1" stroke-width="0.7418" stroke-miterlimit="10"/>
<path d="M115.172 202.144H107.068V204.117H115.172V202.144Z" stroke="#FCE7F1" stroke-width="0.7418" stroke-miterlimit="10"/>
<path d="M111.785 204.113H103.68V206.086H111.785V204.113Z" stroke="#FCE7F1" stroke-width="0.7418" stroke-miterlimit="10"/>
<path d="M107.067 206.11H98.9627V208.084H107.067V206.11Z" stroke="#FCE7F1" stroke-width="0.7418" stroke-miterlimit="10"/>
<path d="M115.172 206.11H107.068V208.084H115.172V206.11Z" stroke="#FCE7F1" stroke-width="0.7418" stroke-miterlimit="10"/>
<path d="M111.785 208.166H103.68V210.139H111.785V208.166Z" stroke="#FCE7F1" stroke-width="0.7418" stroke-miterlimit="10"/>
<path d="M107.067 210.12H98.9627V212.093H107.067V210.12Z" stroke="#FCE7F1" stroke-width="0.7418" stroke-miterlimit="10"/>
<path d="M115.172 210.12H107.068V212.093H115.172V210.12Z" stroke="#FCE7F1" stroke-width="0.7418" stroke-miterlimit="10"/>
<path d="M111.785 212.088H103.68V214.062H111.785V212.088Z" stroke="#FCE7F1" stroke-width="0.7418" stroke-miterlimit="10"/>
<path d="M107.067 214.086H98.9627V216.059H107.067V214.086Z" stroke="#FCE7F1" stroke-width="0.7418" stroke-miterlimit="10"/>
<path d="M115.172 214.086H107.068V216.059H115.172V214.086Z" stroke="#FCE7F1" stroke-width="0.7418" stroke-miterlimit="10"/>
</g>
<path opacity="0.3" d="M176.102 147.603V144.072L104.124 157.106V160.99L176.102 147.603Z" fill="#2D2563"/>
<path opacity="0.5" d="M161.214 200.198H119.012V202.504H161.214V200.198Z" fill="#2D2563"/>
<path d="M160.527 164.528H119.529V200.024H160.527V164.528Z" fill="white"/>
<path opacity="0.3" d="M160.527 164.528H119.529V200.024H160.527V164.528Z" fill="#FEA938"/>
<mask id="mask4_13_6473" style="mask-type:luminance" maskUnits="userSpaceOnUse" x="119" y="164" width="42" height="37">
<path d="M160.527 164.528H119.529V200.024H160.527V164.528Z" fill="white"/>
</mask>
<g mask="url(#mask4_13_6473)">
<g opacity="0.5">
<path d="M132.733 155.963L124.227 163.005L167.445 198.782L175.952 191.74L132.733 155.963Z" fill="white"/>
<path d="M112.405 161.241L111.631 161.882L161.826 203.434L162.6 202.793L112.405 161.241Z" fill="white"/>
<path d="M99.9924 170.737L99.218 171.378L149.413 212.93L150.188 212.289L99.9924 170.737Z" fill="white"/>
<path d="M126.135 148.168L125.361 148.809L175.556 190.361L176.33 189.72L126.135 148.168Z" fill="white"/>
<path d="M110.43 163.343L106.365 166.708L156.56 208.26L160.625 204.895L110.43 163.343Z" fill="white"/>
</g>
</g>
<path d="M118.776 163.906V200.646H161.28V163.906H118.776ZM159.775 167.797H140.78V165.151H159.775V167.797ZM139.276 165.151V167.797H120.281V165.151H139.276ZM120.281 169.043H139.276V199.401H120.281V169.043ZM140.78 199.401V169.043H159.775V199.401H140.78Z" fill="#2D2563"/>
<path d="M252.301 215.274H103.625V222.505H252.301V215.274Z" fill="#FFF0F8"/>
<path opacity="0.3" d="M252.301 216.729H176.568V219.845H252.301V216.729Z" fill="#2D2563"/>
<path d="M118.133 223.476C117.897 223.485 117.66 223.492 117.424 223.498C115.244 213.84 118.707 206.61 118.707 206.61C121.503 213.321 120.245 223.039 120.245 223.039L118.133 223.476Z" fill="#647EDD"/>
<path d="M117.984 222.458C117.984 222.458 117.374 211.578 111.367 208.354C111.367 208.354 113.812 219.315 115.021 223.517L117.984 222.458Z" fill="#8195FA"/>
<path d="M120.159 223.366C119.425 223.425 118.69 223.46 117.954 223.484L117.393 223.247C117.393 223.247 118.713 212.412 124.696 209.423C124.696 209.423 122.062 218.676 120.522 223.357C120.402 223.356 120.281 223.356 120.159 223.366Z" fill="#8195FA"/>
<path d="M114.411 223.562C114.383 223.431 114.357 223.292 114.337 223.136C113.883 219.552 107.876 211.945 107.876 211.945C116.065 214.134 117.633 223.05 117.706 223.491C116.608 223.523 115.509 223.534 114.411 223.562Z" fill="#9FB4FF"/>
<path d="M120.159 223.366C119.464 223.422 118.768 223.455 118.072 223.479C118.498 221.973 120.674 215.768 127.837 214.576C127.837 214.576 122.153 220.324 121.313 223.437C120.943 223.365 120.557 223.334 120.159 223.366Z" fill="#9FB4FF"/>
<path d="M141.139 223.297C141.38 223.306 141.622 223.313 141.863 223.319C144.09 213.453 140.552 206.068 140.552 206.068C137.697 212.923 138.982 222.851 138.982 222.851L141.139 223.297Z" fill="#647EDD"/>
<path d="M141.291 222.257C141.291 222.257 141.913 211.144 148.05 207.851C148.05 207.851 145.552 219.046 144.317 223.339L141.291 222.257Z" fill="#8195FA"/>
<path d="M139.069 223.185C139.819 223.245 140.57 223.28 141.322 223.305L141.894 223.063C141.894 223.063 140.545 211.995 134.435 208.942C134.435 208.942 137.125 218.393 138.698 223.175C138.821 223.175 138.944 223.174 139.069 223.185Z" fill="#8195FA"/>
<path d="M144.94 223.385C144.97 223.251 144.996 223.109 145.017 222.95C145.48 219.289 151.616 211.519 151.616 211.519C143.251 213.755 141.649 222.862 141.574 223.312C142.696 223.345 143.819 223.357 144.94 223.385Z" fill="#9FB4FF"/>
<path d="M139.069 223.185C139.779 223.242 140.49 223.275 141.201 223.3C140.766 221.762 138.543 215.424 131.226 214.206C131.226 214.206 137.032 220.078 137.89 223.257C138.269 223.183 138.663 223.152 139.069 223.185Z" fill="#9FB4FF"/>
</g>
</g>
<defs>
<clipPath id="clip0_13_6473">
<rect width="220" height="220" rx="36" fill="white"/>
</clipPath>
<clipPath id="clip1_13_6473">
<rect width="241" height="133" fill="white" transform="translate(48 115)"/>
</clipPath>
</defs>
</svg>
