<svg width="220" height="220" viewBox="0 0 220 220" fill="none" xmlns="http://www.w3.org/2000/svg">
<g clip-path="url(#clip0_13_6475)">
<path d="M0 36C0 16.1178 16.1177 0 36 0H184C203.882 0 220 16.1177 220 36V184C220 203.882 203.882 220 184 220H36C16.1178 220 0 203.882 0 184V36Z" fill="#D1F2DE"/>
<path d="M241.466 231.105H89.8421V230.096C89.8421 216.003 100.645 204.578 113.971 204.578H217.337C230.663 204.578 241.466 216.003 241.466 230.096V231.105Z" fill="#4F9967"/>
<path d="M96.3185 218.12C96.3185 221.138 94.0052 223.584 91.1516 223.584C88.298 223.584 85.9848 221.138 85.9848 218.12C85.9848 215.102 88.298 207.67 91.1516 207.67C94.0052 207.67 96.3185 215.102 96.3185 218.12Z" fill="#67E56A"/>
<path d="M86.584 220.671C87.4508 222.403 89.1696 223.584 91.1516 223.584C93.5576 223.584 95.5736 221.842 96.1484 219.488C94.688 220.879 91.5916 221.055 86.584 220.671Z" fill="#58CC58"/>
<path d="M91.1516 207.671C88.3752 207.671 86.1108 214.705 85.9904 217.865C88.4544 217.387 94.7648 215.742 94.6704 211.453C93.748 209.36 92.5116 207.671 91.1516 207.671Z" fill="#A1F973"/>
<path d="M108.152 218.12C108.152 221.138 105.839 223.584 102.986 223.584C100.132 223.584 97.8188 221.138 97.8188 218.12C97.8188 215.102 100.132 207.67 102.986 207.67C105.839 207.671 108.152 215.102 108.152 218.12Z" fill="#67E56A"/>
<path d="M98.418 220.671C99.2848 222.403 101.004 223.584 102.986 223.584C105.392 223.584 107.408 221.842 107.982 219.488C106.522 220.879 103.426 221.055 98.418 220.671Z" fill="#58CC58"/>
<path d="M102.986 207.671C100.209 207.671 97.945 214.705 97.825 217.865C100.289 217.387 106.599 215.742 106.505 211.453C105.582 209.36 104.346 207.671 102.986 207.671Z" fill="#A1F973"/>
<path d="M220.986 152.373H110.323V231.212H220.986V152.373Z" fill="#FFD876"/>
<path d="M125.758 170.569H113.417V177.095H125.758V170.569Z" fill="#FFCF4A"/>
<path d="M196.376 164.588H184.035V171.113H196.376V164.588Z" fill="#FFB133"/>
<path d="M166.209 181.99H153.868V188.516H166.209V181.99Z" fill="#FFCF4A"/>
<path d="M218.659 196.855H206.318V203.38H218.659V196.855Z" fill="#FFB133"/>
<path d="M116.273 183.078H110.331V189.603H116.273V183.078Z" fill="#FFB133"/>
<path d="M220.944 183.078H215.002V189.603H220.944V183.078Z" fill="#FFCF4A"/>
<path d="M152.782 209.725H146.84V216.251H152.782V209.725Z" fill="#FFCF4A"/>
<path d="M220.985 159.512L110.323 160.962V152.373H220.985V159.512Z" fill="#FFB133"/>
<path d="M224.642 156.977H106.666L104.544 142.73H226.764L224.642 156.977Z" fill="#CCC2B2"/>
<path d="M203.124 120.121H128.187L104.544 142.744H226.767L203.124 120.121Z" fill="#EFE5D0"/>
<path d="M106.666 156.977H122.002V142.73H104.544L106.666 156.977Z" fill="#F4586B"/>
<path d="M156.935 142.73H139.436V156.977H156.935V142.73Z" fill="#F4586B"/>
<path d="M191.868 142.73H174.37V156.977H191.868V142.73Z" fill="#F4586B"/>
<path d="M209.302 142.73V156.977H224.642L226.764 142.73H209.302Z" fill="#F4586B"/>
<path d="M203.124 120.121H202.11C199.527 120.158 192.78 120.241 192.402 120.121H192.397L209.302 142.698H226.719L203.124 120.121Z" fill="#FF7E71"/>
<path d="M170.988 120.107L174.37 142.698H191.868L181.707 120.107C181.707 120.107 171.311 120.107 170.988 120.107Z" fill="#FF7E71"/>
<path d="M139.436 142.698H156.935L160.309 120.107H149.591L139.436 142.698Z" fill="#FF7E71"/>
<path d="M104.504 142.698H122.002L138.912 120.107C138.81 120.107 128.193 120.107 128.193 120.107L104.504 142.698Z" fill="#FF7E71"/>
<path d="M110.149 137.314C114.422 138.205 119.168 139.096 124.128 139.858L130.082 131.903C126.633 130.916 123.164 129.695 119.689 128.217L110.149 137.314Z" fill="#FFAD91"/>
<path d="M143.078 134.597L139.904 141.658C145.861 142.069 151.731 142.117 157.099 141.6L158.029 135.374C153.173 135.495 148.172 135.269 143.078 134.597Z" fill="#FFAD91"/>
<path d="M173.054 133.912L173.735 138.46C178.452 137.242 183.293 135.777 188.046 134.201L186.532 130.834C182.307 132.052 177.795 133.117 173.054 133.912Z" fill="#FFAD91"/>
<path d="M206.458 123.312C203.82 124.551 200.859 125.84 197.618 127.094L199.82 130.035C203.252 128.749 206.519 127.468 209.53 126.251L206.458 123.312Z" fill="#FFAD91"/>
<path d="M150.097 167.488H121.301V231.213H150.097V167.488Z" fill="#444463"/>
<path d="M147.531 170.026H123.868V199.242H147.531V170.026Z" fill="#9FDAFF"/>
<path d="M147.531 201.598H123.868V230.814H147.531V201.598Z" fill="#9FDAFF"/>
<path d="M146.225 199.242L147.53 195.639V170.668L129.582 199.242H146.225Z" fill="#C2EBFF"/>
<path d="M145.371 201.598H128.102L123.868 208.338V230.814H134.78L145.371 201.598Z" fill="#C2EBFF"/>
<path d="M145.576 204.287H141.677C141.288 204.287 140.97 203.951 140.97 203.539C140.97 203.128 141.288 202.791 141.677 202.791H145.576C145.965 202.791 146.284 203.128 146.284 203.539C146.284 203.95 145.965 204.287 145.576 204.287Z" fill="white"/>
<path d="M128.114 182.896L135.571 176.62L143.948 182.67" stroke="#444463" stroke-miterlimit="10"/>
<path d="M137.242 176.892C137.242 177.818 136.532 178.569 135.656 178.569C134.781 178.569 134.071 177.818 134.071 176.892C134.071 175.966 134.781 175.215 135.656 175.215C136.532 175.215 137.242 175.966 137.242 176.892Z" fill="white"/>
<path d="M143.766 183.161H126.368V194.218H143.766V183.161Z" fill="#7BADC6"/>
<path d="M144.698 182.171H127.3V193.229H144.698V182.171Z" fill="#F4586B"/>
<path d="M132.74 187.609C132.74 187.768 132.713 187.916 132.659 188.052C132.606 188.188 132.531 188.305 132.433 188.404C132.336 188.503 132.219 188.581 132.082 188.638C131.945 188.694 131.793 188.722 131.626 188.722C131.459 188.722 131.307 188.694 131.17 188.638C131.033 188.581 130.915 188.503 130.817 188.404C130.719 188.305 130.643 188.188 130.589 188.052C130.536 187.916 130.51 187.768 130.51 187.609C130.51 187.45 130.536 187.303 130.589 187.168C130.643 187.032 130.719 186.915 130.817 186.816C130.915 186.717 131.033 186.639 131.17 186.583C131.307 186.526 131.459 186.498 131.626 186.498C131.793 186.498 131.945 186.526 132.082 186.583C132.219 186.639 132.336 186.717 132.433 186.817C132.531 186.916 132.606 187.034 132.659 187.17C132.713 187.305 132.74 187.451 132.74 187.609ZM132.28 187.609C132.28 187.495 132.265 187.393 132.235 187.303C132.205 187.212 132.161 187.135 132.104 187.072C132.048 187.008 131.98 186.96 131.899 186.927C131.819 186.893 131.728 186.876 131.626 186.876C131.524 186.876 131.432 186.893 131.351 186.927C131.27 186.96 131.201 187.008 131.144 187.072C131.088 187.135 131.045 187.212 131.015 187.303C130.985 187.393 130.97 187.495 130.97 187.609C130.97 187.724 130.985 187.827 131.015 187.918C131.045 188.008 131.088 188.085 131.144 188.148C131.201 188.211 131.27 188.259 131.351 188.293C131.432 188.326 131.524 188.343 131.626 188.343C131.728 188.343 131.819 188.326 131.899 188.293C131.98 188.259 132.048 188.211 132.104 188.148C132.161 188.085 132.205 188.008 132.235 187.918C132.265 187.827 132.28 187.724 132.28 187.609ZM133.804 187.605C133.945 187.605 134.048 187.571 134.113 187.503C134.179 187.435 134.212 187.342 134.212 187.224C134.212 187.17 134.203 187.121 134.186 187.077C134.17 187.032 134.145 186.994 134.111 186.963C134.078 186.931 134.036 186.906 133.985 186.889C133.934 186.872 133.874 186.864 133.804 186.864H133.519V187.605H133.804ZM133.804 186.522C133.953 186.522 134.081 186.539 134.189 186.574C134.298 186.609 134.388 186.658 134.458 186.721C134.528 186.783 134.579 186.857 134.612 186.943C134.646 187.029 134.663 187.123 134.663 187.224C134.663 187.331 134.646 187.429 134.611 187.518C134.576 187.607 134.523 187.683 134.452 187.747C134.381 187.811 134.291 187.861 134.183 187.897C134.075 187.932 133.949 187.95 133.804 187.95H133.519V188.698H133.069V186.522H133.804ZM135.403 186.874V187.434H136.129V187.774H135.403V188.346H136.336V188.698H134.95V186.522H136.336V186.874H135.403ZM138.537 186.522V188.698H138.304C138.269 188.698 138.24 188.693 138.216 188.682C138.192 188.67 138.168 188.65 138.145 188.622L137.061 187.242C137.064 187.277 137.066 187.311 137.067 187.345C137.069 187.379 137.07 187.411 137.07 187.44V188.698H136.672V186.522H136.909C136.928 186.522 136.944 186.523 136.957 186.525C136.971 186.526 136.984 186.529 136.995 186.535C137.006 186.54 137.016 186.547 137.026 186.556C137.036 186.565 137.047 186.577 137.059 186.592L138.151 187.978C138.147 187.94 138.144 187.904 138.142 187.869C138.14 187.833 138.139 187.799 138.139 187.767V186.522H138.537Z" fill="#444463"/>
<path d="M121.222 177.907C120.799 177.907 120.452 178.274 120.452 178.722V184.488C120.452 184.936 120.799 185.303 121.222 185.303C121.646 185.303 121.993 184.936 121.993 184.488V178.722C121.993 178.274 121.646 177.907 121.222 177.907Z" fill="#55557C"/>
<path d="M121.222 214.226C120.799 214.226 120.452 214.593 120.452 215.041V220.807C120.452 221.255 120.799 221.622 121.222 221.622C121.646 221.622 121.993 221.255 121.993 220.807V215.041C121.993 214.592 121.646 214.226 121.222 214.226Z" fill="#55557C"/>
<path d="M216.243 216.03H159.524V218.346H216.243V216.03Z" fill="#EFE5D0"/>
<path d="M216.243 218.346C216.243 218.346 190.463 220.33 178.293 220.421C166.124 220.511 159.524 218.346 159.524 218.346H216.243Z" fill="#FFB133"/>
<path d="M214.546 167.488H160.382V216.07H214.546V167.488Z" fill="#444463"/>
<path d="M211.917 169.845H163.01V213.712H211.917V169.845Z" fill="#9FDAFF"/>
<path d="M211.917 200.305C197.988 200.167 180.742 202.091 163.01 209.225V213.713H211.917V200.305Z" fill="#7DC0E2"/>
<path d="M164.079 213.712H185.492L205.061 169.845H196.439L164.079 213.712Z" fill="#C2EBFF"/>
<path d="M210.357 169.845H206.996L191.15 213.712H196.936L210.357 169.845Z" fill="#C2EBFF"/>
<path d="M211.913 204.451H203.158V213.711H211.913V204.451Z" fill="white"/>
<path d="M210.464 206.487H204.452V208.867H210.464V206.487Z" fill="#EFE5D0"/>
<path d="M210.163 205.702H204.519C204.458 205.702 204.408 205.649 204.408 205.585C204.408 205.52 204.458 205.467 204.519 205.467H210.163C210.224 205.467 210.274 205.52 210.274 205.585C210.274 205.649 210.224 205.702 210.163 205.702Z" fill="#444463"/>
<path d="M210.163 210.058H204.519C204.458 210.058 204.408 210.005 204.408 209.941C204.408 209.876 204.458 209.823 204.519 209.823H210.163C210.224 209.823 210.274 209.876 210.274 209.941C210.274 210.005 210.224 210.058 210.163 210.058Z" fill="#444463"/>
<path d="M210.163 211.797H204.519C204.458 211.797 204.408 211.744 204.408 211.68C204.408 211.615 204.458 211.562 204.519 211.562H210.163C210.224 211.562 210.274 211.615 210.274 211.68C210.274 211.744 210.224 211.797 210.163 211.797Z" fill="#444463"/>
<path d="M204.519 210.928H207.342C207.403 210.928 207.453 210.875 207.453 210.81C207.453 210.745 207.403 210.692 207.342 210.692H204.519C204.458 210.692 204.408 210.745 204.408 210.81C204.408 210.875 204.458 210.928 204.519 210.928Z" fill="#444463"/>
<path d="M207.341 212.432H204.518C204.457 212.432 204.407 212.485 204.407 212.549C204.407 212.614 204.457 212.667 204.518 212.667H207.341C207.402 212.667 207.452 212.614 207.452 212.549C207.452 212.485 207.402 212.432 207.341 212.432Z" fill="#444463"/>
<path d="M141.8 109.479H139.4V120.477H141.8V109.479Z" fill="#444463"/>
<path d="M166.854 109.479H164.454V120.477H166.854V109.479Z" fill="#444463"/>
<path d="M191.907 109.479H189.508V120.477H191.907V109.479Z" fill="#444463"/>
<path d="M192.469 120.876H138.839C138.086 120.876 137.476 120.23 137.476 119.434C137.476 118.638 138.086 117.993 138.839 117.993H192.469C193.222 117.993 193.832 118.638 193.832 119.434C193.832 120.23 193.222 120.876 192.469 120.876Z" fill="#55557C"/>
<path d="M195.05 112.924H136.258C131.525 112.924 127.688 108.866 127.688 103.86C127.688 98.8541 131.525 94.7959 136.258 94.7959H195.05C199.783 94.7959 203.62 98.8541 203.62 103.86C203.62 108.866 199.783 112.924 195.05 112.924Z" fill="#FFB133"/>
<path d="M195.05 112.924H136.258C131.525 112.924 127.688 108.866 127.688 103.86C127.688 98.8541 131.525 94.7959 136.258 94.7959H195.05C199.783 94.7959 203.62 98.8541 203.62 103.86C203.62 108.866 199.783 112.924 195.05 112.924Z" fill="#FFB133"/>
<path d="M195.05 94.7964H136.258C132.746 94.7964 129.73 97.0313 128.406 100.229C129.918 97.6574 132.613 95.9445 135.687 95.9445H194.478C199.212 95.9445 203.049 100.003 203.049 105.008C203.049 106.3 202.792 107.528 202.331 108.64C203.147 107.252 203.62 105.615 203.62 103.86C203.62 98.8542 199.783 94.7964 195.05 94.7964Z" fill="#FFCF4A"/>
<path d="M136.258 110.069C133.021 110.069 130.388 107.283 130.388 103.86C130.388 100.437 133.021 97.6514 136.258 97.6514H195.05C198.287 97.6514 200.92 100.437 200.92 103.86C200.92 107.284 198.287 110.069 195.05 110.069H136.258Z" fill="#EFE5D0"/>
<path d="M151.468 99.8114C163.937 99.8114 182.748 99.3097 198.672 98.9835C197.673 98.1518 196.417 97.6514 195.05 97.6514H136.258C133.021 97.6514 130.388 100.437 130.388 103.86C130.388 104.799 130.591 105.685 130.945 106.484C130.595 99.3477 135.442 99.8114 151.468 99.8114Z" fill="#CCC2B2"/>
<path d="M148.773 104.441C148.574 104.233 148.346 104.061 148.09 103.927C147.834 103.793 147.572 103.676 147.305 103.576C147.038 103.476 146.776 103.386 146.52 103.305C146.264 103.224 146.036 103.134 145.836 103.038C145.637 102.94 145.476 102.824 145.353 102.69C145.23 102.556 145.169 102.387 145.169 102.183C145.169 101.863 145.271 101.609 145.475 101.422C145.678 101.234 145.988 101.14 146.405 101.14C146.646 101.14 146.86 101.174 147.049 101.241C147.237 101.308 147.405 101.383 147.552 101.467C147.698 101.55 147.83 101.625 147.946 101.693C148.062 101.76 148.17 101.793 148.271 101.793C148.385 101.793 148.478 101.765 148.55 101.71C148.623 101.655 148.692 101.571 148.757 101.46L149.309 100.369C149.138 100.202 148.945 100.053 148.728 99.9206C148.511 99.7886 148.278 99.6753 148.028 99.5801C147.778 99.4849 147.514 99.413 147.236 99.3648C146.958 99.3161 146.672 99.292 146.379 99.292C145.853 99.292 145.386 99.3766 144.979 99.5454C144.572 99.7146 144.228 99.9405 143.948 100.223C143.667 100.506 143.455 100.828 143.31 101.189C143.166 101.55 143.093 101.921 143.093 102.301C143.093 102.773 143.154 103.17 143.277 103.492C143.4 103.814 143.561 104.083 143.76 104.299C143.96 104.514 144.186 104.687 144.44 104.82C144.694 104.952 144.955 105.063 145.222 105.153C145.49 105.244 145.75 105.326 146.004 105.4C146.258 105.474 146.485 105.56 146.684 105.657C146.884 105.754 147.045 105.877 147.167 106.025C147.29 106.174 147.351 106.366 147.351 106.602C147.351 107.009 147.24 107.307 147.016 107.495C146.792 107.682 146.479 107.776 146.076 107.776C145.778 107.776 145.52 107.732 145.301 107.644C145.082 107.556 144.888 107.459 144.72 107.352C144.551 107.246 144.4 107.148 144.266 107.06C144.132 106.972 144 106.928 143.868 106.928C143.768 106.928 143.675 106.955 143.589 107.008C143.504 107.061 143.435 107.127 143.382 107.206L142.725 108.304C142.914 108.503 143.135 108.684 143.389 108.846C143.643 109.008 143.914 109.148 144.204 109.267C144.493 109.385 144.792 109.476 145.1 109.541C145.409 109.606 145.712 109.639 146.01 109.639C146.554 109.639 147.039 109.552 147.466 109.378C147.893 109.204 148.252 108.966 148.544 108.662C148.835 108.359 149.057 108.003 149.21 107.596C149.364 107.188 149.44 106.751 149.44 106.282C149.44 105.861 149.379 105.5 149.256 105.202C149.134 104.903 148.973 104.65 148.773 104.441Z" fill="#B2A89A"/>
<path d="M159.5 103.635H155.61V99.4028H153.376V109.528H155.61V105.247H159.5V109.528H161.734V99.4028H159.5V103.635Z" fill="#B2A89A"/>
<path d="M174.244 100.786C173.81 100.323 173.288 99.9579 172.677 99.6913C172.066 99.4248 171.388 99.292 170.644 99.292C169.899 99.292 169.22 99.424 168.606 99.688C167.993 99.9519 167.469 100.316 167.033 100.779C166.597 101.242 166.26 101.789 166.021 102.419C165.782 103.049 165.663 103.73 165.663 104.461C165.663 105.194 165.782 105.875 166.021 106.505C166.26 107.135 166.597 107.682 167.033 108.148C167.468 108.614 167.993 108.979 168.606 109.243C169.22 109.507 169.898 109.639 170.644 109.639C171.388 109.639 172.066 109.507 172.677 109.243C173.288 108.979 173.81 108.614 174.244 108.148C174.678 107.682 175.014 107.135 175.253 106.505C175.492 105.875 175.611 105.194 175.611 104.461C175.611 103.734 175.492 103.056 175.253 102.425C175.014 101.796 174.678 101.249 174.244 100.786ZM173.154 105.82C173.031 106.221 172.854 106.56 172.625 106.839C172.395 107.116 172.113 107.328 171.78 107.474C171.448 107.62 171.068 107.693 170.644 107.693C170.214 107.693 169.832 107.62 169.497 107.474C169.162 107.328 168.879 107.116 168.65 106.839C168.42 106.561 168.243 106.221 168.12 105.82C167.998 105.42 167.936 104.967 167.936 104.461C167.936 103.961 167.998 103.511 168.12 103.11C168.243 102.709 168.42 102.37 168.65 102.092C168.879 101.814 169.162 101.601 169.497 101.452C169.832 101.304 170.214 101.23 170.644 101.23C171.068 101.23 171.447 101.304 171.78 101.452C172.113 101.601 172.395 101.814 172.625 102.092C172.854 102.37 173.031 102.709 173.154 103.11C173.276 103.511 173.338 103.961 173.338 104.461C173.338 104.967 173.276 105.42 173.154 105.82Z" fill="#B2A89A"/>
<path d="M186.551 101.404C186.402 101.001 186.17 100.652 185.858 100.355C185.544 100.059 185.146 99.8259 184.662 99.6567C184.178 99.4879 183.598 99.4033 182.924 99.4033H179.547V109.528H181.768V106.144H182.924C183.585 106.144 184.158 106.059 184.642 105.89C185.126 105.721 185.526 105.486 185.841 105.185C186.157 104.883 186.391 104.522 186.544 104.101C186.698 103.679 186.774 103.216 186.774 102.711C186.774 102.243 186.7 101.807 186.551 101.404ZM184.172 103.934C183.918 104.226 183.502 104.372 182.924 104.372H181.768V101.161H182.924C183.204 101.161 183.446 101.199 183.65 101.273C183.854 101.347 184.022 101.453 184.156 101.589C184.289 101.726 184.389 101.889 184.455 102.079C184.521 102.269 184.554 102.48 184.554 102.711C184.554 103.234 184.426 103.642 184.172 103.934Z" fill="#B2A89A"/>
<path d="M149.473 103.958C149.274 103.749 149.046 103.578 148.79 103.444C148.534 103.309 148.272 103.192 148.005 103.092C147.738 102.993 147.476 102.902 147.22 102.821C146.964 102.74 146.736 102.651 146.536 102.554C146.337 102.457 146.176 102.341 146.054 102.206C145.931 102.072 145.87 101.903 145.87 101.699C145.87 101.379 145.972 101.126 146.175 100.938C146.379 100.75 146.689 100.657 147.105 100.657C147.346 100.657 147.561 100.69 147.749 100.757C147.938 100.825 148.105 100.9 148.252 100.983C148.399 101.067 148.53 101.142 148.646 101.209C148.762 101.276 148.871 101.31 148.972 101.31C149.086 101.31 149.178 101.282 149.251 101.226C149.323 101.171 149.392 101.087 149.458 100.976L150.01 99.8854C149.839 99.7183 149.645 99.569 149.428 99.437C149.211 99.305 148.978 99.1916 148.728 99.0964C148.479 99.0013 148.215 98.9293 147.937 98.8811C147.658 98.8325 147.373 98.8083 147.079 98.8083C146.554 98.8083 146.087 98.893 145.68 99.0617C145.272 99.231 144.928 99.4569 144.648 99.7395C144.368 100.022 144.155 100.344 144.01 100.705C143.866 101.067 143.794 101.438 143.794 101.817C143.794 102.29 143.855 102.687 143.978 103.009C144.1 103.331 144.261 103.599 144.461 103.815C144.66 104.03 144.887 104.204 145.141 104.336C145.395 104.468 145.656 104.579 145.923 104.67C146.19 104.76 146.451 104.842 146.705 104.916C146.959 104.99 147.186 105.076 147.385 105.173C147.584 105.271 147.745 105.393 147.868 105.541C147.99 105.69 148.052 105.882 148.052 106.118C148.052 106.526 147.94 106.824 147.716 107.011C147.493 107.198 147.18 107.292 146.777 107.292C146.479 107.292 146.22 107.248 146.002 107.16C145.782 107.072 145.588 106.975 145.42 106.868C145.251 106.762 145.1 106.665 144.966 106.577C144.833 106.489 144.7 106.445 144.569 106.445C144.468 106.445 144.375 106.471 144.29 106.525C144.204 106.578 144.135 106.644 144.083 106.723L143.426 107.82C143.614 108.02 143.835 108.2 144.089 108.363C144.343 108.525 144.615 108.665 144.904 108.783C145.193 108.901 145.492 108.993 145.801 109.058C146.11 109.122 146.413 109.155 146.711 109.155C147.254 109.155 147.739 109.068 148.166 108.894C148.594 108.721 148.952 108.482 149.244 108.179C149.535 107.875 149.758 107.52 149.911 107.112C150.064 106.704 150.141 106.267 150.141 105.799C150.141 105.377 150.08 105.017 149.957 104.718C149.834 104.42 149.673 104.166 149.473 103.958Z" fill="#444463"/>
<path d="M160.2 103.151H156.31V98.9197H154.076V109.044H156.31V104.764H160.2V109.044H162.434V98.9197H160.2V103.151Z" fill="#444463"/>
<path d="M174.944 100.302C174.51 99.8389 173.988 99.4742 173.377 99.2077C172.766 98.9412 172.088 98.8083 171.344 98.8083C170.599 98.8083 169.92 98.9403 169.306 99.2043C168.693 99.4683 168.169 99.8321 167.733 100.295C167.297 100.759 166.96 101.305 166.721 101.935C166.482 102.565 166.363 103.246 166.363 103.978C166.363 104.71 166.482 105.391 166.721 106.021C166.96 106.651 167.297 107.199 167.733 107.665C168.168 108.13 168.693 108.495 169.306 108.759C169.92 109.023 170.598 109.155 171.344 109.155C172.088 109.155 172.766 109.023 173.377 108.759C173.988 108.495 174.51 108.13 174.944 107.665C175.378 107.199 175.714 106.651 175.952 106.021C176.191 105.391 176.31 104.71 176.31 103.978C176.31 103.251 176.191 102.572 175.952 101.942C175.714 101.312 175.378 100.766 174.944 100.302ZM173.853 105.337C173.73 105.738 173.554 106.077 173.324 106.355C173.094 106.633 172.813 106.845 172.48 106.991C172.147 107.137 171.768 107.21 171.343 107.21C170.914 107.21 170.532 107.137 170.196 106.991C169.862 106.845 169.579 106.633 169.349 106.355C169.119 106.077 168.943 105.738 168.82 105.337C168.698 104.936 168.636 104.483 168.636 103.978C168.636 103.478 168.698 103.028 168.82 102.627C168.943 102.226 169.119 101.887 169.349 101.608C169.579 101.33 169.862 101.118 170.196 100.969C170.532 100.821 170.914 100.747 171.343 100.747C171.768 100.747 172.147 100.821 172.48 100.969C172.813 101.118 173.094 101.33 173.324 101.608C173.554 101.886 173.73 102.226 173.853 102.627C173.976 103.027 174.037 103.478 174.037 103.978C174.038 104.483 173.976 104.936 173.853 105.337Z" fill="#444463"/>
<path d="M187.251 100.921C187.102 100.518 186.87 100.168 186.558 99.8718C186.244 99.5752 185.846 99.3425 185.362 99.1733C184.877 99.0045 184.298 98.9199 183.624 98.9199H180.246V109.044H182.467V105.66H183.624C184.285 105.66 184.858 105.576 185.342 105.407C185.826 105.238 186.226 105.003 186.541 104.701C186.856 104.4 187.091 104.039 187.244 103.617C187.397 103.196 187.474 102.732 187.474 102.228C187.474 101.759 187.4 101.324 187.251 100.921ZM184.872 103.45C184.618 103.742 184.202 103.888 183.624 103.888H182.467V100.678H183.624C183.904 100.678 184.146 100.715 184.35 100.789C184.553 100.863 184.722 100.969 184.855 101.105C184.989 101.242 185.089 101.405 185.154 101.595C185.22 101.786 185.253 101.996 185.253 102.228C185.253 102.751 185.126 103.158 184.872 103.45Z" fill="#444463"/>
<path d="M26.3906 31H30.5625L34.9688 41.75H35.1563L39.5625 31H43.7344V47H40.4531V36.5859H40.3203L36.1797 46.9219H33.9453L29.8047 36.5469H29.6719V47H26.3906V31ZM49.8809 47.2266C49.1152 47.2266 48.4329 47.0938 47.834 46.8281C47.235 46.5573 46.7611 46.1589 46.4121 45.6328C46.0684 45.1016 45.8965 44.4401 45.8965 43.6484C45.8965 42.9818 46.0189 42.4219 46.2637 41.9687C46.5085 41.5156 46.8418 41.151 47.2637 40.875C47.6855 40.599 48.1647 40.3906 48.7012 40.25C49.2428 40.1094 49.8105 40.0104 50.4043 39.9531C51.1022 39.8802 51.6647 39.8125 52.0918 39.75C52.5189 39.6823 52.8288 39.5833 53.0215 39.4531C53.2142 39.3229 53.3105 39.1302 53.3105 38.875V38.8281C53.3105 38.3333 53.1543 37.9505 52.8418 37.6797C52.5345 37.4089 52.097 37.2734 51.5293 37.2734C50.9303 37.2734 50.4538 37.4062 50.0996 37.6719C49.7454 37.9323 49.5111 38.2604 49.3965 38.6562L46.3184 38.4062C46.4746 37.6771 46.7819 37.0469 47.2402 36.5156C47.6986 35.9792 48.2897 35.5677 49.0137 35.2812C49.7428 34.9896 50.5866 34.8438 51.5449 34.8438C52.2116 34.8438 52.8496 34.9219 53.459 35.0781C54.0736 35.2344 54.6178 35.4766 55.0918 35.8047C55.571 36.1328 55.9486 36.5547 56.2246 37.0703C56.5007 37.5807 56.6387 38.1927 56.6387 38.9062V47H53.4824V45.3359H53.3887C53.196 45.7109 52.9382 46.0417 52.6152 46.3281C52.2923 46.6094 51.9043 46.8307 51.4512 46.9922C50.998 47.1484 50.4746 47.2266 49.8809 47.2266ZM50.834 44.9297C51.3236 44.9297 51.7559 44.8333 52.1309 44.6406C52.5059 44.4427 52.8001 44.1771 53.0137 43.8438C53.2272 43.5104 53.334 43.1328 53.334 42.7109V41.4375C53.2298 41.5052 53.0866 41.5677 52.9043 41.625C52.7272 41.6771 52.5267 41.7266 52.3027 41.7734C52.0788 41.8151 51.8548 41.8542 51.6309 41.8906C51.4069 41.9219 51.2038 41.9505 51.0215 41.9766C50.6309 42.0339 50.2897 42.125 49.998 42.25C49.7064 42.375 49.4798 42.5443 49.3184 42.7578C49.1569 42.9661 49.0762 43.2266 49.0762 43.5391C49.0762 43.9922 49.2402 44.3385 49.5684 44.5781C49.9017 44.8125 50.3236 44.9297 50.834 44.9297ZM59.2207 47V35H62.4473V37.0937H62.5723C62.791 36.349 63.1582 35.7865 63.6738 35.4063C64.1895 35.0208 64.7832 34.8281 65.4551 34.8281C65.6217 34.8281 65.8014 34.8385 65.9941 34.8594C66.1868 34.8802 66.3561 34.9089 66.502 34.9453V37.8984C66.3457 37.8516 66.1296 37.8099 65.8535 37.7734C65.5775 37.737 65.3249 37.7188 65.0957 37.7188C64.6061 37.7188 64.1686 37.8255 63.7832 38.0391C63.403 38.2474 63.1009 38.5391 62.877 38.9141C62.6582 39.2891 62.5488 39.7214 62.5488 40.2109V47H59.2207ZM71.2383 43.5469L71.2461 39.5547H71.7305L75.5742 35H79.3945L74.2305 41.0313H73.4414L71.2383 43.5469ZM68.2227 47V31H71.5508V47H68.2227ZM75.7227 47L72.1914 41.7734L74.4102 39.4219L79.6211 47H75.7227ZM87.4102 35V37.5H80.1836V35H87.4102ZM81.8242 32.125H85.1523V43.3125C85.1523 43.6198 85.1992 43.8594 85.293 44.0312C85.3867 44.1979 85.5169 44.3151 85.6836 44.3828C85.8555 44.4505 86.0534 44.4844 86.2773 44.4844C86.4336 44.4844 86.5898 44.4714 86.7461 44.4453C86.9023 44.4141 87.0221 44.3906 87.1055 44.375L87.6289 46.8516C87.4622 46.9036 87.2279 46.9635 86.9258 47.0313C86.6237 47.1042 86.2565 47.1484 85.8242 47.1641C85.0221 47.1953 84.319 47.0885 83.7148 46.8437C83.1159 46.599 82.6497 46.2187 82.3164 45.7031C81.9831 45.1875 81.819 44.5365 81.8242 43.75V32.125ZM89.5781 51.5V35H92.8594V37.0156H93.0078C93.1536 36.6927 93.3646 36.3646 93.6406 36.0312C93.9219 35.6927 94.2865 35.4115 94.7344 35.1875C95.1875 34.9583 95.75 34.8438 96.4219 34.8438C97.2969 34.8438 98.1042 35.0729 98.8438 35.5313C99.5833 35.9844 100.174 36.6693 100.617 37.5859C101.06 38.4974 101.281 39.6406 101.281 41.0156C101.281 42.3542 101.065 43.4844 100.633 44.4062C100.206 45.3229 99.6224 46.0182 98.8828 46.4922C98.1484 46.9609 97.3255 47.1953 96.4141 47.1953C95.7682 47.1953 95.2188 47.0885 94.7656 46.875C94.3177 46.6615 93.9505 46.3932 93.6641 46.0703C93.3776 45.7422 93.1589 45.4115 93.0078 45.0781H92.9063V51.5H89.5781ZM92.8359 41C92.8359 41.7135 92.9349 42.3359 93.1328 42.8672C93.3307 43.3984 93.6172 43.8125 93.9922 44.1094C94.3672 44.401 94.8229 44.5469 95.3594 44.5469C95.901 44.5469 96.3594 44.3984 96.7344 44.1016C97.1094 43.7995 97.3932 43.3828 97.5859 42.8516C97.7839 42.3151 97.8828 41.6979 97.8828 41C97.8828 40.3073 97.7865 39.6979 97.5938 39.1719C97.401 38.6458 97.1172 38.2344 96.7422 37.9375C96.3672 37.6406 95.9063 37.4922 95.3594 37.4922C94.8177 37.4922 94.3594 37.6354 93.9844 37.9219C93.6146 38.2083 93.3307 38.6146 93.1328 39.1406C92.9349 39.6667 92.8359 40.2865 92.8359 41ZM106.828 31V47H103.5V31H106.828ZM112.916 47.2266C112.15 47.2266 111.468 47.0938 110.869 46.8281C110.27 46.5573 109.796 46.1589 109.447 45.6328C109.104 45.1016 108.932 44.4401 108.932 43.6484C108.932 42.9818 109.054 42.4219 109.299 41.9687C109.544 41.5156 109.877 41.151 110.299 40.875C110.721 40.599 111.2 40.3906 111.736 40.25C112.278 40.1094 112.846 40.0104 113.439 39.9531C114.137 39.8802 114.7 39.8125 115.127 39.75C115.554 39.6823 115.864 39.5833 116.057 39.4531C116.249 39.3229 116.346 39.1302 116.346 38.875V38.8281C116.346 38.3333 116.189 37.9505 115.877 37.6797C115.57 37.4089 115.132 37.2734 114.564 37.2734C113.965 37.2734 113.489 37.4062 113.135 37.6719C112.781 37.9323 112.546 38.2604 112.432 38.6562L109.354 38.4062C109.51 37.6771 109.817 37.0469 110.275 36.5156C110.734 35.9792 111.325 35.5677 112.049 35.2812C112.778 34.9896 113.622 34.8438 114.58 34.8438C115.247 34.8438 115.885 34.9219 116.494 35.0781C117.109 35.2344 117.653 35.4766 118.127 35.8047C118.606 36.1328 118.984 36.5547 119.26 37.0703C119.536 37.5807 119.674 38.1927 119.674 38.9062V47H116.518V45.3359H116.424C116.231 45.7109 115.973 46.0417 115.65 46.3281C115.327 46.6094 114.939 46.8307 114.486 46.9922C114.033 47.1484 113.51 47.2266 112.916 47.2266ZM113.869 44.9297C114.359 44.9297 114.791 44.8333 115.166 44.6406C115.541 44.4427 115.835 44.1771 116.049 43.8438C116.262 43.5104 116.369 43.1328 116.369 42.7109V41.4375C116.265 41.5052 116.122 41.5677 115.939 41.625C115.762 41.6771 115.562 41.7266 115.338 41.7734C115.114 41.8151 114.89 41.8542 114.666 41.8906C114.442 41.9219 114.239 41.9505 114.057 41.9766C113.666 42.0339 113.325 42.125 113.033 42.25C112.742 42.375 112.515 42.5443 112.354 42.7578C112.192 42.9661 112.111 43.2266 112.111 43.5391C112.111 43.9922 112.275 44.3385 112.604 44.5781C112.937 44.8125 113.359 44.9297 113.869 44.9297ZM128.639 35V37.5H121.412V35H128.639ZM123.053 32.125H126.381V43.3125C126.381 43.6198 126.428 43.8594 126.521 44.0312C126.615 44.1979 126.745 44.3151 126.912 44.3828C127.084 44.4505 127.282 44.4844 127.506 44.4844C127.662 44.4844 127.818 44.4714 127.975 44.4453C128.131 44.4141 128.251 44.3906 128.334 44.375L128.857 46.8516C128.691 46.9036 128.456 46.9635 128.154 47.0313C127.852 47.1042 127.485 47.1484 127.053 47.1641C126.251 47.1953 125.548 47.0885 124.943 46.8437C124.344 46.599 123.878 46.2187 123.545 45.7031C123.212 45.1875 123.048 44.5365 123.053 43.75V32.125ZM130.744 47V45.0156L136.619 37.7422V37.6562H130.947V35H140.627V37.1641L135.111 44.2578V44.3437H140.83V47H130.744Z" fill="black"/>
</g>
<defs>
<clipPath id="clip0_13_6475">
<rect width="220" height="220" rx="36" fill="white"/>
</clipPath>
</defs>
</svg>
